<?xml version='1.0' encoding='UTF-8'?>
<svg xmlns="http://www.w3.org/2000/svg" version="1.1" width="75" height="93" shape-rendering="crispEdges">
<path fill="#000000" d="M42.0,10.0 H47.0 V81.0 H42.0 Z" />
<path fill="#000000" d="M40.0,33.0 H42.0 V42.0 H40.0 Z" />
<path fill="#000000" d="M39.0,35.0 H40.0 V44.0 H39.0 Z" />
<path fill="#000000" d="M38.0,36.0 H39.0 V45.0 H38.0 Z" />
<path fill="#000000" d="M37.0,37.0 H38.0 V46.0 H37.0 Z" />
<path fill="#000000" d="M36.0,38.0 H37.0 V47.0 H36.0 Z" />
<path fill="#000000" d="M35.0,39.0 H36.0 V48.0 H35.0 Z" />
<path fill="#000000" d="M34.0,40.0 H35.0 V49.0 H34.0 Z" />
<path fill="#000000" d="M33.0,41.0 H34.0 V50.0 H33.0 Z" />
<path fill="#000000" d="M32.0,42.0 H33.0 V51.0 H32.0 Z" />
<path fill="#000000" d="M40.0,42.0 H41.0 V43.0 H40.0 Z" />
<path fill="#000000" d="M31.0,43.0 H32.0 V52.0 H31.0 Z" />
<path fill="#000000" d="M30.0,44.0 H31.0 V53.0 H30.0 Z" />
<path fill="#000000" d="M29.0,45.0 H30.0 V54.0 H29.0 Z" />
<path fill="#000000" d="M28.0,46.0 H29.0 V68.0 H28.0 Z" />
<path fill="#000000" d="M27.0,47.0 H28.0 V67.0 H27.0 Z" />
<path fill="#000000" d="M26.0,48.0 H27.0 V66.0 H26.0 Z" />
<path fill="#000000" d="M25.0,49.0 H26.0 V65.0 H25.0 Z" />
<path fill="#000000" d="M24.0,50.0 H25.0 V64.0 H24.0 Z" />
<path fill="#000000" d="M23.0,51.0 H24.0 V63.0 H23.0 Z" />
<path fill="#000000" d="M22.0,52.0 H23.0 V62.0 H22.0 Z" />
<path fill="#000000" d="M29.0,59.0 H30.0 V69.0 H29.0 Z" />
<path fill="#000000" d="M30.0,60.0 H31.0 V70.0 H30.0 Z" />
<path fill="#000000" d="M31.0,61.0 H32.0 V71.0 H31.0 Z" />
<path fill="#000000" d="M32.0,62.0 H33.0 V72.0 H32.0 Z" />
<path fill="#000000" d="M33.0,63.0 H34.0 V73.0 H33.0 Z" />
<path fill="#000000" d="M34.0,64.0 H35.0 V74.0 H34.0 Z" />
<path fill="#000000" d="M35.0,65.0 H36.0 V75.0 H35.0 Z" />
<path fill="#000000" d="M36.0,66.0 H37.0 V76.0 H36.0 Z" />
<path fill="#000000" d="M37.0,67.0 H38.0 V77.0 H37.0 Z" />
<path fill="#000000" d="M38.0,68.0 H39.0 V78.0 H38.0 Z" />
<path fill="#000000" d="M39.0,69.0 H40.0 V79.0 H39.0 Z" />
<path fill="#000000" d="M40.0,70.0 H41.0 V80.0 H40.0 Z" />
<path fill="#000000" d="M41.0,71.0 H42.0 V81.0 H41.0 Z" />
<path fill="#000000" d="M42.0,81.0 H46.0 V82.0 H42.0 Z" />
</svg>