<?xml version='1.0' encoding='UTF-8'?>
<svg xmlns="http://www.w3.org/2000/svg" version="1.1" width="75" height="93" shape-rendering="crispEdges">
<path fill="#000000" d="M35.0,11.0 H36.0 V24.0 H35.0 Z" />
<path fill="#000000" d="M34.0,12.0 H35.0 V23.0 H34.0 Z" />
<path fill="#000000" d="M36.0,12.0 H37.0 V23.0 H36.0 Z" />
<path fill="#000000" d="M33.0,13.0 H34.0 V22.0 H33.0 Z" />
<path fill="#000000" d="M37.0,13.0 H38.0 V22.0 H37.0 Z" />
<path fill="#000000" d="M32.0,14.0 H33.0 V21.0 H32.0 Z" />
<path fill="#000000" d="M38.0,14.0 H39.0 V21.0 H38.0 Z" />
<path fill="#000000" d="M31.0,15.0 H32.0 V20.0 H31.0 Z" />
<path fill="#000000" d="M39.0,15.0 H40.0 V20.0 H39.0 Z" />
<path fill="#000000" d="M30.0,16.0 H31.0 V19.0 H30.0 Z" />
<path fill="#000000" d="M40.0,16.0 H41.0 V19.0 H40.0 Z" />
<path fill="#000000" d="M29.0,17.0 H30.0 V18.0 H29.0 Z" />
<path fill="#000000" d="M41.0,17.0 H42.0 V18.0 H41.0 Z" />
<path fill="#000000" d="M31.0,30.0 H40.0 V83.0 H31.0 Z" />
</svg>