<?xml version='1.0' encoding='UTF-8'?>
<svg xmlns="http://www.w3.org/2000/svg" version="1.1" width="75" height="93" shape-rendering="crispEdges">
<path fill="#000000" d="M39.0,11.0 H40.0 V24.0 H39.0 Z" />
<path fill="#000000" d="M38.0,12.0 H39.0 V23.0 H38.0 Z" />
<path fill="#000000" d="M40.0,12.0 H41.0 V23.0 H40.0 Z" />
<path fill="#000000" d="M37.0,13.0 H38.0 V22.0 H37.0 Z" />
<path fill="#000000" d="M41.0,13.0 H42.0 V22.0 H41.0 Z" />
<path fill="#000000" d="M36.0,14.0 H37.0 V21.0 H36.0 Z" />
<path fill="#000000" d="M42.0,14.0 H43.0 V21.0 H42.0 Z" />
<path fill="#000000" d="M35.0,15.0 H36.0 V20.0 H35.0 Z" />
<path fill="#000000" d="M43.0,15.0 H44.0 V20.0 H43.0 Z" />
<path fill="#000000" d="M34.0,16.0 H35.0 V19.0 H34.0 Z" />
<path fill="#000000" d="M44.0,16.0 H45.0 V19.0 H44.0 Z" />
<path fill="#000000" d="M33.0,17.0 H34.0 V18.0 H33.0 Z" />
<path fill="#000000" d="M45.0,17.0 H46.0 V18.0 H45.0 Z" />
<path fill="#000000" d="M36.0,29.0 H42.0 V80.0 H36.0 Z" />
<path fill="#000000" d="M24.0,61.0 H25.0 V70.0 H24.0 Z" />
<path fill="#000000" d="M23.0,62.0 H24.0 V69.0 H23.0 Z" />
<path fill="#000000" d="M25.0,62.0 H26.0 V71.0 H25.0 Z" />
<path fill="#000000" d="M22.0,63.0 H23.0 V68.0 H22.0 Z" />
<path fill="#000000" d="M26.0,63.0 H27.0 V72.0 H26.0 Z" />
<path fill="#000000" d="M21.0,64.0 H22.0 V67.0 H21.0 Z" />
<path fill="#000000" d="M27.0,64.0 H28.0 V73.0 H27.0 Z" />
<path fill="#000000" d="M20.0,65.0 H21.0 V66.0 H20.0 Z" />
<path fill="#000000" d="M28.0,65.0 H29.0 V74.0 H28.0 Z" />
<path fill="#000000" d="M29.0,66.0 H30.0 V75.0 H29.0 Z" />
<path fill="#000000" d="M30.0,67.0 H31.0 V76.0 H30.0 Z" />
<path fill="#000000" d="M31.0,68.0 H32.0 V77.0 H31.0 Z" />
<path fill="#000000" d="M32.0,69.0 H33.0 V78.0 H32.0 Z" />
<path fill="#000000" d="M33.0,70.0 H34.0 V79.0 H33.0 Z" />
<path fill="#000000" d="M34.0,71.0 H35.0 V80.0 H34.0 Z" />
<path fill="#000000" d="M35.0,72.0 H36.0 V81.0 H35.0 Z" />
<path fill="#000000" d="M36.0,80.0 H41.0 V81.0 H36.0 Z" />
<path fill="#000000" d="M36.0,81.0 H40.0 V82.0 H36.0 Z" />
<path fill="#000000" d="M37.0,82.0 H40.0 V83.0 H37.0 Z" />
</svg>