<?xml version='1.0' encoding='UTF-8'?>
<svg xmlns="http://www.w3.org/2000/svg" version="1.1" width="75" height="93" shape-rendering="crispEdges">
<path fill="#000000" d="M26.0,11.0 H32.0 V82.0 H26.0 Z" />
<path fill="#000000" d="M45.0,64.0 H46.0 V73.0 H45.0 Z" />
<path fill="#000000" d="M44.0,65.0 H45.0 V74.0 H44.0 Z" />
<path fill="#000000" d="M46.0,65.0 H47.0 V72.0 H46.0 Z" />
<path fill="#000000" d="M43.0,66.0 H44.0 V75.0 H43.0 Z" />
<path fill="#000000" d="M47.0,66.0 H48.0 V71.0 H47.0 Z" />
<path fill="#000000" d="M42.0,67.0 H43.0 V76.0 H42.0 Z" />
<path fill="#000000" d="M48.0,67.0 H49.0 V70.0 H48.0 Z" />
<path fill="#000000" d="M41.0,68.0 H42.0 V77.0 H41.0 Z" />
<path fill="#000000" d="M49.0,68.0 H50.0 V69.0 H49.0 Z" />
<path fill="#000000" d="M40.0,69.0 H41.0 V78.0 H40.0 Z" />
<path fill="#000000" d="M39.0,70.0 H40.0 V79.0 H39.0 Z" />
<path fill="#000000" d="M38.0,71.0 H39.0 V80.0 H38.0 Z" />
<path fill="#000000" d="M37.0,72.0 H38.0 V81.0 H37.0 Z" />
<path fill="#000000" d="M36.0,73.0 H37.0 V82.0 H36.0 Z" />
<path fill="#000000" d="M32.0,74.0 H36.0 V83.0 H32.0 Z" />
<path fill="#000000" d="M27.0,82.0 H32.0 V83.0 H27.0 Z" />
</svg>