<?xml version='1.0' encoding='UTF-8'?>
<svg xmlns="http://www.w3.org/2000/svg" version="1.1" width="75" height="93" shape-rendering="crispEdges">
<path fill="#000000" d="M23.0,25.0 H29.0 V81.0 H23.0 Z" />
<path fill="#000000" d="M22.0,26.0 H23.0 V81.0 H22.0 Z" />
<path fill="#000000" d="M29.0,26.0 H30.0 V36.0 H29.0 Z" />
<path fill="#000000" d="M30.0,27.0 H31.0 V37.0 H30.0 Z" />
<path fill="#000000" d="M31.0,28.0 H32.0 V38.0 H31.0 Z" />
<path fill="#000000" d="M32.0,29.0 H33.0 V39.0 H32.0 Z" />
<path fill="#000000" d="M33.0,30.0 H34.0 V40.0 H33.0 Z" />
<path fill="#000000" d="M34.0,31.0 H35.0 V41.0 H34.0 Z" />
<path fill="#000000" d="M35.0,32.0 H36.0 V42.0 H35.0 Z" />
<path fill="#000000" d="M36.0,33.0 H37.0 V43.0 H36.0 Z" />
<path fill="#000000" d="M37.0,34.0 H38.0 V44.0 H37.0 Z" />
<path fill="#000000" d="M38.0,35.0 H39.0 V45.0 H38.0 Z" />
<path fill="#000000" d="M39.0,36.0 H40.0 V46.0 H39.0 Z" />
<path fill="#000000" d="M40.0,37.0 H41.0 V47.0 H40.0 Z" />
<path fill="#000000" d="M41.0,38.0 H42.0 V48.0 H41.0 Z" />
<path fill="#000000" d="M42.0,39.0 H43.0 V82.0 H42.0 Z" />
<path fill="#000000" d="M43.0,40.0 H44.0 V82.0 H43.0 Z" />
<path fill="#000000" d="M44.0,41.0 H45.0 V82.0 H44.0 Z" />
<path fill="#000000" d="M45.0,42.0 H46.0 V82.0 H45.0 Z" />
<path fill="#000000" d="M46.0,43.0 H47.0 V82.0 H46.0 Z" />
<path fill="#000000" d="M47.0,44.0 H48.0 V82.0 H47.0 Z" />
<path fill="#000000" d="M48.0,45.0 H49.0 V82.0 H48.0 Z" />
<path fill="#000000" d="M29.0,78.0 H30.0 V81.0 H29.0 Z" />
</svg>