<?xml version='1.0' encoding='UTF-8'?>
<svg xmlns="http://www.w3.org/2000/svg" version="1.1" width="75" height="93" shape-rendering="crispEdges">
<path fill="#000000" d="M28.0,14.0 H32.0 V87.0 H28.0 Z" />
<path fill="#000000" d="M26.0,15.0 H28.0 V87.0 H26.0 Z" />
<path fill="#000000" d="M32.0,15.0 H34.0 V24.0 H32.0 Z" />
<path fill="#000000" d="M34.0,16.0 H35.0 V25.0 H34.0 Z" />
<path fill="#000000" d="M35.0,17.0 H36.0 V26.0 H35.0 Z" />
<path fill="#000000" d="M36.0,18.0 H37.0 V27.0 H36.0 Z" />
<path fill="#000000" d="M37.0,19.0 H38.0 V28.0 H37.0 Z" />
<path fill="#000000" d="M38.0,20.0 H39.0 V29.0 H38.0 Z" />
<path fill="#000000" d="M39.0,21.0 H40.0 V30.0 H39.0 Z" />
<path fill="#000000" d="M40.0,22.0 H41.0 V31.0 H40.0 Z" />
<path fill="#000000" d="M41.0,23.0 H42.0 V32.0 H41.0 Z" />
<path fill="#000000" d="M42.0,24.0 H43.0 V33.0 H42.0 Z" />
<path fill="#000000" d="M43.0,25.0 H44.0 V34.0 H43.0 Z" />
<path fill="#000000" d="M44.0,26.0 H45.0 V35.0 H44.0 Z" />
<path fill="#000000" d="M45.0,27.0 H46.0 V44.0 H45.0 Z" />
<path fill="#000000" d="M46.0,28.0 H47.0 V43.0 H46.0 Z" />
<path fill="#000000" d="M47.0,29.0 H48.0 V42.0 H47.0 Z" />
<path fill="#000000" d="M48.0,30.0 H49.0 V41.0 H48.0 Z" />
<path fill="#000000" d="M49.0,31.0 H50.0 V40.0 H49.0 Z" />
<path fill="#000000" d="M50.0,32.0 H51.0 V39.0 H50.0 Z" />
<path fill="#000000" d="M51.0,33.0 H52.0 V38.0 H51.0 Z" />
<path fill="#000000" d="M52.0,34.0 H53.0 V37.0 H52.0 Z" />
<path fill="#000000" d="M44.0,36.0 H45.0 V45.0 H44.0 Z" />
<path fill="#000000" d="M43.0,37.0 H44.0 V46.0 H43.0 Z" />
<path fill="#000000" d="M42.0,38.0 H43.0 V47.0 H42.0 Z" />
<path fill="#000000" d="M41.0,39.0 H42.0 V48.0 H41.0 Z" />
<path fill="#000000" d="M40.0,40.0 H41.0 V49.0 H40.0 Z" />
<path fill="#000000" d="M39.0,41.0 H40.0 V50.0 H39.0 Z" />
<path fill="#000000" d="M38.0,42.0 H39.0 V51.0 H38.0 Z" />
<path fill="#000000" d="M37.0,43.0 H38.0 V52.0 H37.0 Z" />
<path fill="#000000" d="M36.0,44.0 H37.0 V53.0 H36.0 Z" />
<path fill="#000000" d="M35.0,45.0 H36.0 V54.0 H35.0 Z" />
<path fill="#000000" d="M34.0,46.0 H35.0 V55.0 H34.0 Z" />
<path fill="#000000" d="M32.0,47.0 H34.0 V56.0 H32.0 Z" />
<path fill="#000000" d="M32.0,56.0 H33.0 V87.0 H32.0 Z" />
<path fill="#000000" d="M33.0,84.0 H34.0 V87.0 H33.0 Z" />
</svg>