<?xml version='1.0' encoding='UTF-8'?>
<svg xmlns="http://www.w3.org/2000/svg" version="1.1" width="75" height="93" shape-rendering="crispEdges">
<path fill="#000000" d="M24.0,21.0 H30.0 V33.0 H24.0 Z" />
<path fill="#000000" d="M45.0,21.0 H51.0 V30.0 H45.0 Z" />
<path fill="#000000" d="M44.0,24.0 H45.0 V52.0 H44.0 Z" />
<path fill="#000000" d="M30.0,27.0 H31.0 V58.0 H30.0 Z" />
<path fill="#000000" d="M45.0,30.0 H50.0 V32.0 H45.0 Z" />
<path fill="#000000" d="M31.0,31.0 H32.0 V61.0 H31.0 Z" />
<path fill="#000000" d="M43.0,31.0 H44.0 V56.0 H43.0 Z" />
<path fill="#000000" d="M45.0,32.0 H49.0 V34.0 H45.0 Z" />
<path fill="#000000" d="M25.0,33.0 H30.0 V42.0 H25.0 Z" />
<path fill="#000000" d="M42.0,34.0 H43.0 V60.0 H42.0 Z" />
<path fill="#000000" d="M45.0,34.0 H48.0 V38.0 H45.0 Z" />
<path fill="#000000" d="M41.0,38.0 H42.0 V63.0 H41.0 Z" />
<path fill="#000000" d="M45.0,38.0 H47.0 V43.0 H45.0 Z" />
<path fill="#000000" d="M26.0,42.0 H30.0 V45.0 H26.0 Z" />
<path fill="#000000" d="M32.0,42.0 H33.0 V72.0 H32.0 Z" />
<path fill="#000000" d="M40.0,42.0 H41.0 V68.0 H40.0 Z" />
<path fill="#000000" d="M45.0,43.0 H46.0 V48.0 H45.0 Z" />
<path fill="#000000" d="M27.0,45.0 H30.0 V48.0 H27.0 Z" />
<path fill="#000000" d="M33.0,45.0 H34.0 V75.0 H33.0 Z" />
<path fill="#000000" d="M28.0,48.0 H30.0 V51.0 H28.0 Z" />
<path fill="#000000" d="M34.0,48.0 H35.0 V75.0 H34.0 Z" />
<path fill="#000000" d="M39.0,50.0 H40.0 V74.0 H39.0 Z" />
<path fill="#000000" d="M29.0,51.0 H30.0 V54.0 H29.0 Z" />
<path fill="#000000" d="M35.0,51.0 H36.0 V75.0 H35.0 Z" />
<path fill="#000000" d="M38.0,53.0 H39.0 V74.0 H38.0 Z" />
<path fill="#000000" d="M36.0,57.0 H38.0 V75.0 H36.0 Z" />
</svg>