<?xml version='1.0' encoding='UTF-8'?>
<svg xmlns="http://www.w3.org/2000/svg" version="1.1" width="75" height="93" shape-rendering="crispEdges">
<path fill="#000000" d="M19.0,20.0 H26.0 V27.0 H19.0 Z" />
<path fill="#000000" d="M46.0,20.0 H53.0 V27.0 H46.0 Z" />
<path fill="#000000" d="M20.0,27.0 H26.0 V75.0 H20.0 Z" />
<path fill="#000000" d="M47.0,27.0 H53.0 V75.0 H47.0 Z" />
<path fill="#000000" d="M35.0,50.0 H37.0 V59.0 H35.0 Z" />
<path fill="#000000" d="M34.0,51.0 H35.0 V60.0 H34.0 Z" />
<path fill="#000000" d="M37.0,51.0 H38.0 V60.0 H37.0 Z" />
<path fill="#000000" d="M33.0,52.0 H34.0 V61.0 H33.0 Z" />
<path fill="#000000" d="M38.0,52.0 H39.0 V61.0 H38.0 Z" />
<path fill="#000000" d="M32.0,53.0 H33.0 V62.0 H32.0 Z" />
<path fill="#000000" d="M39.0,53.0 H40.0 V62.0 H39.0 Z" />
<path fill="#000000" d="M31.0,54.0 H32.0 V63.0 H31.0 Z" />
<path fill="#000000" d="M40.0,54.0 H41.0 V63.0 H40.0 Z" />
<path fill="#000000" d="M30.0,55.0 H31.0 V64.0 H30.0 Z" />
<path fill="#000000" d="M41.0,55.0 H42.0 V64.0 H41.0 Z" />
<path fill="#000000" d="M29.0,56.0 H30.0 V65.0 H29.0 Z" />
<path fill="#000000" d="M42.0,56.0 H43.0 V65.0 H42.0 Z" />
<path fill="#000000" d="M28.0,57.0 H29.0 V66.0 H28.0 Z" />
<path fill="#000000" d="M43.0,57.0 H44.0 V66.0 H43.0 Z" />
<path fill="#000000" d="M27.0,58.0 H28.0 V67.0 H27.0 Z" />
<path fill="#000000" d="M44.0,58.0 H45.0 V67.0 H44.0 Z" />
<path fill="#000000" d="M26.0,59.0 H27.0 V68.0 H26.0 Z" />
<path fill="#000000" d="M45.0,59.0 H46.0 V68.0 H45.0 Z" />
<path fill="#000000" d="M46.0,60.0 H47.0 V69.0 H46.0 Z" />
</svg>