<?xml version='1.0' encoding='UTF-8'?>
<svg xmlns="http://www.w3.org/2000/svg" version="1.1" width="75" height="93" shape-rendering="crispEdges">
<path fill="#000000" d="M40.0,4.0 H42.0 V9.0 H40.0 Z" />
<path fill="#000000" d="M37.0,5.0 H40.0 V10.0 H37.0 Z" />
<path fill="#000000" d="M34.0,6.0 H37.0 V12.0 H34.0 Z" />
<path fill="#000000" d="M33.0,7.0 H34.0 V36.0 H33.0 Z" />
<path fill="#000000" d="M32.0,8.0 H33.0 V37.0 H32.0 Z" />
<path fill="#000000" d="M40.0,9.0 H41.0 V10.0 H40.0 Z" />
<path fill="#000000" d="M37.0,10.0 H39.0 V11.0 H37.0 Z" />
<path fill="#000000" d="M31.0,12.0 H32.0 V38.0 H31.0 Z" />
<path fill="#000000" d="M34.0,12.0 H36.0 V13.0 H34.0 Z" />
<path fill="#000000" d="M34.0,13.0 H35.0 V35.0 H34.0 Z" />
<path fill="#000000" d="M30.0,16.0 H31.0 V39.0 H30.0 Z" />
<path fill="#000000" d="M29.0,32.0 H30.0 V47.0 H29.0 Z" />
<path fill="#000000" d="M28.0,33.0 H29.0 V46.0 H28.0 Z" />
<path fill="#000000" d="M27.0,34.0 H28.0 V45.0 H27.0 Z" />
<path fill="#000000" d="M26.0,35.0 H27.0 V44.0 H26.0 Z" />
<path fill="#000000" d="M25.0,36.0 H26.0 V43.0 H25.0 Z" />
<path fill="#000000" d="M24.0,37.0 H25.0 V42.0 H24.0 Z" />
<path fill="#000000" d="M23.0,38.0 H24.0 V41.0 H23.0 Z" />
<path fill="#000000" d="M22.0,39.0 H23.0 V40.0 H22.0 Z" />
<path fill="#000000" d="M30.0,40.0 H31.0 V63.0 H30.0 Z" />
<path fill="#000000" d="M31.0,41.0 H32.0 V67.0 H31.0 Z" />
<path fill="#000000" d="M32.0,42.0 H33.0 V71.0 H32.0 Z" />
<path fill="#000000" d="M33.0,43.0 H34.0 V72.0 H33.0 Z" />
<path fill="#000000" d="M34.0,44.0 H35.0 V73.0 H34.0 Z" />
<path fill="#000000" d="M35.0,66.0 H36.0 V73.0 H35.0 Z" />
<path fill="#000000" d="M36.0,67.0 H37.0 V73.0 H36.0 Z" />
<path fill="#000000" d="M37.0,68.0 H39.0 V74.0 H37.0 Z" />
<path fill="#000000" d="M39.0,69.0 H41.0 V74.0 H39.0 Z" />
<path fill="#000000" d="M41.0,70.0 H42.0 V75.0 H41.0 Z" />
<path fill="#000000" d="M40.0,74.0 H41.0 V75.0 H40.0 Z" />
</svg>