<?xml version='1.0' encoding='UTF-8'?>
<svg xmlns="http://www.w3.org/2000/svg" version="1.1" width="75" height="93" shape-rendering="crispEdges">
<path fill="#000000" d="M38.0,4.0 H40.0 V9.0 H38.0 Z" />
<path fill="#000000" d="M40.0,5.0 H43.0 V10.0 H40.0 Z" />
<path fill="#000000" d="M43.0,6.0 H46.0 V12.0 H43.0 Z" />
<path fill="#000000" d="M46.0,7.0 H47.0 V36.0 H46.0 Z" />
<path fill="#000000" d="M47.0,8.0 H48.0 V37.0 H47.0 Z" />
<path fill="#000000" d="M39.0,9.0 H40.0 V10.0 H39.0 Z" />
<path fill="#000000" d="M41.0,10.0 H43.0 V11.0 H41.0 Z" />
<path fill="#000000" d="M44.0,12.0 H46.0 V13.0 H44.0 Z" />
<path fill="#000000" d="M48.0,12.0 H49.0 V38.0 H48.0 Z" />
<path fill="#000000" d="M45.0,13.0 H46.0 V35.0 H45.0 Z" />
<path fill="#000000" d="M49.0,16.0 H50.0 V39.0 H49.0 Z" />
<path fill="#000000" d="M50.0,32.0 H51.0 V47.0 H50.0 Z" />
<path fill="#000000" d="M51.0,33.0 H52.0 V46.0 H51.0 Z" />
<path fill="#000000" d="M52.0,34.0 H53.0 V45.0 H52.0 Z" />
<path fill="#000000" d="M53.0,35.0 H54.0 V44.0 H53.0 Z" />
<path fill="#000000" d="M54.0,36.0 H55.0 V43.0 H54.0 Z" />
<path fill="#000000" d="M55.0,37.0 H56.0 V42.0 H55.0 Z" />
<path fill="#000000" d="M56.0,38.0 H57.0 V41.0 H56.0 Z" />
<path fill="#000000" d="M57.0,39.0 H58.0 V40.0 H57.0 Z" />
<path fill="#000000" d="M49.0,40.0 H50.0 V63.0 H49.0 Z" />
<path fill="#000000" d="M48.0,41.0 H49.0 V67.0 H48.0 Z" />
<path fill="#000000" d="M47.0,42.0 H48.0 V71.0 H47.0 Z" />
<path fill="#000000" d="M46.0,43.0 H47.0 V72.0 H46.0 Z" />
<path fill="#000000" d="M45.0,44.0 H46.0 V73.0 H45.0 Z" />
<path fill="#000000" d="M44.0,66.0 H45.0 V73.0 H44.0 Z" />
<path fill="#000000" d="M43.0,67.0 H44.0 V73.0 H43.0 Z" />
<path fill="#000000" d="M41.0,68.0 H43.0 V74.0 H41.0 Z" />
<path fill="#000000" d="M39.0,69.0 H41.0 V74.0 H39.0 Z" />
<path fill="#000000" d="M38.0,70.0 H39.0 V75.0 H38.0 Z" />
<path fill="#000000" d="M39.0,74.0 H40.0 V75.0 H39.0 Z" />
</svg>