<?xml version='1.0' encoding='UTF-8'?>
<svg xmlns="http://www.w3.org/2000/svg" version="1.1" width="75" height="93" shape-rendering="crispEdges">
<path fill="#000000" d="M28.0,28.0 H33.0 V35.0 H28.0 Z" />
<path fill="#000000" d="M49.0,28.0 H52.0 V34.0 H49.0 Z" />
<path fill="#000000" d="M27.0,29.0 H28.0 V37.0 H27.0 Z" />
<path fill="#000000" d="M33.0,29.0 H34.0 V37.0 H33.0 Z" />
<path fill="#000000" d="M48.0,29.0 H49.0 V37.0 H48.0 Z" />
<path fill="#000000" d="M52.0,29.0 H53.0 V33.0 H52.0 Z" />
<path fill="#000000" d="M26.0,30.0 H27.0 V38.0 H26.0 Z" />
<path fill="#000000" d="M34.0,30.0 H35.0 V38.0 H34.0 Z" />
<path fill="#000000" d="M47.0,30.0 H48.0 V38.0 H47.0 Z" />
<path fill="#000000" d="M53.0,30.0 H54.0 V32.0 H53.0 Z" />
<path fill="#000000" d="M25.0,31.0 H26.0 V39.0 H25.0 Z" />
<path fill="#000000" d="M35.0,31.0 H36.0 V39.0 H35.0 Z" />
<path fill="#000000" d="M46.0,31.0 H47.0 V39.0 H46.0 Z" />
<path fill="#000000" d="M24.0,32.0 H25.0 V40.0 H24.0 Z" />
<path fill="#000000" d="M36.0,32.0 H37.0 V40.0 H36.0 Z" />
<path fill="#000000" d="M45.0,32.0 H46.0 V40.0 H45.0 Z" />
<path fill="#000000" d="M23.0,33.0 H24.0 V41.0 H23.0 Z" />
<path fill="#000000" d="M37.0,33.0 H38.0 V41.0 H37.0 Z" />
<path fill="#000000" d="M44.0,33.0 H45.0 V41.0 H44.0 Z" />
<path fill="#000000" d="M22.0,34.0 H23.0 V42.0 H22.0 Z" />
<path fill="#000000" d="M38.0,34.0 H39.0 V42.0 H38.0 Z" />
<path fill="#000000" d="M43.0,34.0 H44.0 V42.0 H43.0 Z" />
<path fill="#000000" d="M49.0,34.0 H51.0 V35.0 H49.0 Z" />
<path fill="#000000" d="M21.0,35.0 H22.0 V43.0 H21.0 Z" />
<path fill="#000000" d="M28.0,35.0 H29.0 V36.0 H28.0 Z" />
<path fill="#000000" d="M32.0,35.0 H33.0 V36.0 H32.0 Z" />
<path fill="#000000" d="M39.0,35.0 H43.0 V42.0 H39.0 Z" />
<path fill="#000000" d="M49.0,35.0 H50.0 V36.0 H49.0 Z" />
<path fill="#000000" d="M20.0,36.0 H21.0 V43.0 H20.0 Z" />
<path fill="#000000" d="M19.0,37.0 H20.0 V42.0 H19.0 Z" />
<path fill="#000000" d="M18.0,38.0 H19.0 V41.0 H18.0 Z" />
<path fill="#000000" d="M17.0,39.0 H18.0 V40.0 H17.0 Z" />
</svg>