<?xml version='1.0' encoding='UTF-8'?>
<svg xmlns="http://www.w3.org/2000/svg" version="1.1" width="75" height="93" shape-rendering="crispEdges">
<path fill="#000000" d="M27.0,14.0 H34.0 V18.0 H27.0 Z" />
<path fill="#000000" d="M44.0,14.0 H51.0 V17.0 H44.0 Z" />
<path fill="#000000" d="M44.0,17.0 H50.0 V24.0 H44.0 Z" />
<path fill="#000000" d="M27.0,18.0 H33.0 V19.0 H27.0 Z" />
<path fill="#000000" d="M27.0,19.0 H32.0 V37.0 H27.0 Z" />
<path fill="#000000" d="M26.0,22.0 H27.0 V61.0 H26.0 Z" />
<path fill="#000000" d="M43.0,24.0 H49.0 V28.0 H43.0 Z" />
<path fill="#000000" d="M25.0,26.0 H26.0 V66.0 H25.0 Z" />
<path fill="#000000" d="M43.0,28.0 H48.0 V36.0 H43.0 Z" />
<path fill="#000000" d="M16.0,30.0 H25.0 V36.0 H16.0 Z" />
<path fill="#000000" d="M32.0,31.0 H43.0 V37.0 H32.0 Z" />
<path fill="#000000" d="M48.0,31.0 H55.0 V36.0 H48.0 Z" />
<path fill="#000000" d="M43.0,36.0 H47.0 V39.0 H43.0 Z" />
<path fill="#000000" d="M27.0,37.0 H31.0 V40.0 H27.0 Z" />
<path fill="#000000" d="M41.0,37.0 H43.0 V63.0 H41.0 Z" />
<path fill="#000000" d="M43.0,39.0 H46.0 V45.0 H43.0 Z" />
<path fill="#000000" d="M24.0,40.0 H25.0 V71.0 H24.0 Z" />
<path fill="#000000" d="M27.0,40.0 H30.0 V44.0 H27.0 Z" />
<path fill="#000000" d="M40.0,40.0 H41.0 V71.0 H40.0 Z" />
<path fill="#000000" d="M27.0,44.0 H29.0 V46.0 H27.0 Z" />
<path fill="#000000" d="M23.0,45.0 H24.0 V71.0 H23.0 Z" />
<path fill="#000000" d="M43.0,45.0 H45.0 V55.0 H43.0 Z" />
<path fill="#000000" d="M27.0,46.0 H28.0 V57.0 H27.0 Z" />
<path fill="#000000" d="M39.0,47.0 H40.0 V71.0 H39.0 Z" />
<path fill="#000000" d="M14.0,49.0 H23.0 V55.0 H14.0 Z" />
<path fill="#000000" d="M28.0,49.0 H39.0 V55.0 H28.0 Z" />
<path fill="#000000" d="M45.0,49.0 H54.0 V55.0 H45.0 Z" />
<path fill="#000000" d="M22.0,55.0 H23.0 V71.0 H22.0 Z" />
<path fill="#000000" d="M43.0,55.0 H44.0 V60.0 H43.0 Z" />
<path fill="#000000" d="M38.0,57.0 H39.0 V71.0 H38.0 Z" />
<path fill="#000000" d="M21.0,60.0 H22.0 V71.0 H21.0 Z" />
<path fill="#000000" d="M37.0,60.0 H38.0 V71.0 H37.0 Z" />
<path fill="#000000" d="M41.0,63.0 H42.0 V68.0 H41.0 Z" />
<path fill="#000000" d="M20.0,65.0 H21.0 V71.0 H20.0 Z" />
<path fill="#000000" d="M36.0,66.0 H37.0 V71.0 H36.0 Z" />
</svg>