<?xml version='1.0' encoding='UTF-8'?>
<svg xmlns="http://www.w3.org/2000/svg" version="1.1" width="75" height="93" shape-rendering="crispEdges">
<path fill="#000000" d="M37.0,6.0 H43.0 V9.0 H37.0 Z" />
<path fill="#000000" d="M36.0,8.0 H37.0 V17.0 H36.0 Z" />
<path fill="#000000" d="M35.0,9.0 H36.0 V18.0 H35.0 Z" />
<path fill="#000000" d="M37.0,9.0 H42.0 V10.0 H37.0 Z" />
<path fill="#000000" d="M34.0,10.0 H35.0 V20.0 H34.0 Z" />
<path fill="#000000" d="M37.0,10.0 H41.0 V11.0 H37.0 Z" />
<path fill="#000000" d="M33.0,11.0 H34.0 V23.0 H33.0 Z" />
<path fill="#000000" d="M37.0,11.0 H40.0 V13.0 H37.0 Z" />
<path fill="#000000" d="M37.0,13.0 H39.0 V14.0 H37.0 Z" />
<path fill="#000000" d="M32.0,14.0 H33.0 V26.0 H32.0 Z" />
<path fill="#000000" d="M37.0,14.0 H38.0 V15.0 H37.0 Z" />
<path fill="#000000" d="M31.0,17.0 H32.0 V61.0 H31.0 Z" />
<path fill="#000000" d="M30.0,19.0 H31.0 V60.0 H30.0 Z" />
<path fill="#000000" d="M29.0,21.0 H30.0 V58.0 H29.0 Z" />
<path fill="#000000" d="M28.0,23.0 H29.0 V56.0 H28.0 Z" />
<path fill="#000000" d="M27.0,26.0 H28.0 V52.0 H27.0 Z" />
<path fill="#000000" d="M26.0,30.0 H27.0 V49.0 H26.0 Z" />
<path fill="#000000" d="M32.0,51.0 H34.0 V64.0 H32.0 Z" />
<path fill="#000000" d="M34.0,54.0 H35.0 V67.0 H34.0 Z" />
<path fill="#000000" d="M35.0,57.0 H36.0 V68.0 H35.0 Z" />
<path fill="#000000" d="M36.0,59.0 H37.0 V69.0 H36.0 Z" />
<path fill="#000000" d="M37.0,60.0 H38.0 V70.0 H37.0 Z" />
<path fill="#000000" d="M38.0,62.0 H39.0 V70.0 H38.0 Z" />
<path fill="#000000" d="M33.0,64.0 H34.0 V66.0 H33.0 Z" />
<path fill="#000000" d="M39.0,64.0 H40.0 V70.0 H39.0 Z" />
<path fill="#000000" d="M40.0,66.0 H41.0 V70.0 H40.0 Z" />
<path fill="#000000" d="M41.0,67.0 H42.0 V69.0 H41.0 Z" />
</svg>