<?xml version='1.0' encoding='UTF-8'?>
<svg xmlns="http://www.w3.org/2000/svg" version="1.1" width="75" height="93" shape-rendering="crispEdges">
<path fill="#000000" d="M32.0,7.0 H36.0 V12.0 H32.0 Z" />
<path fill="#000000" d="M36.0,8.0 H37.0 V18.0 H36.0 Z" />
<path fill="#000000" d="M37.0,9.0 H38.0 V21.0 H37.0 Z" />
<path fill="#000000" d="M38.0,10.0 H39.0 V24.0 H38.0 Z" />
<path fill="#000000" d="M33.0,12.0 H36.0 V15.0 H33.0 Z" />
<path fill="#000000" d="M39.0,12.0 H40.0 V27.0 H39.0 Z" />
<path fill="#000000" d="M34.0,15.0 H36.0 V16.0 H34.0 Z" />
<path fill="#000000" d="M40.0,15.0 H41.0 V61.0 H40.0 Z" />
<path fill="#000000" d="M35.0,16.0 H36.0 V17.0 H35.0 Z" />
<path fill="#000000" d="M41.0,16.0 H42.0 V59.0 H41.0 Z" />
<path fill="#000000" d="M42.0,18.0 H43.0 V57.0 H42.0 Z" />
<path fill="#000000" d="M43.0,21.0 H44.0 V53.0 H43.0 Z" />
<path fill="#000000" d="M44.0,24.0 H45.0 V49.0 H44.0 Z" />
<path fill="#000000" d="M39.0,50.0 H40.0 V62.0 H39.0 Z" />
<path fill="#000000" d="M38.0,53.0 H39.0 V65.0 H38.0 Z" />
<path fill="#000000" d="M37.0,56.0 H38.0 V66.0 H37.0 Z" />
<path fill="#000000" d="M36.0,58.0 H37.0 V67.0 H36.0 Z" />
<path fill="#000000" d="M35.0,60.0 H36.0 V68.0 H35.0 Z" />
<path fill="#000000" d="M34.0,61.0 H35.0 V68.0 H34.0 Z" />
<path fill="#000000" d="M33.0,63.0 H34.0 V69.0 H33.0 Z" />
<path fill="#000000" d="M32.0,65.0 H33.0 V69.0 H32.0 Z" />
</svg>