<?xml version='1.0' encoding='UTF-8'?>
<svg xmlns="http://www.w3.org/2000/svg" version="1.1" width="75" height="93" shape-rendering="crispEdges">
<path fill="#000000" d="M34.0,11.0 H40.0 V14.0 H34.0 Z" />
<path fill="#000000" d="M34.0,14.0 H39.0 V29.0 H34.0 Z" />
<path fill="#000000" d="M28.0,15.0 H30.0 V22.0 H28.0 Z" />
<path fill="#000000" d="M45.0,15.0 H47.0 V21.0 H45.0 Z" />
<path fill="#000000" d="M27.0,16.0 H28.0 V21.0 H27.0 Z" />
<path fill="#000000" d="M30.0,16.0 H31.0 V23.0 H30.0 Z" />
<path fill="#000000" d="M44.0,16.0 H45.0 V22.0 H44.0 Z" />
<path fill="#000000" d="M47.0,16.0 H48.0 V20.0 H47.0 Z" />
<path fill="#000000" d="M26.0,17.0 H27.0 V20.0 H26.0 Z" />
<path fill="#000000" d="M31.0,17.0 H32.0 V23.0 H31.0 Z" />
<path fill="#000000" d="M48.0,17.0 H49.0 V19.0 H48.0 Z" />
<path fill="#000000" d="M43.0,18.0 H44.0 V23.0 H43.0 Z" />
<path fill="#000000" d="M32.0,19.0 H33.0 V30.0 H32.0 Z" />
<path fill="#000000" d="M42.0,19.0 H43.0 V23.0 H42.0 Z" />
<path fill="#000000" d="M33.0,20.0 H34.0 V29.0 H33.0 Z" />
<path fill="#000000" d="M39.0,20.0 H42.0 V23.0 H39.0 Z" />
<path fill="#000000" d="M45.0,21.0 H46.0 V22.0 H45.0 Z" />
<path fill="#000000" d="M39.0,23.0 H41.0 V29.0 H39.0 Z" />
<path fill="#000000" d="M41.0,25.0 H43.0 V31.0 H41.0 Z" />
<path fill="#000000" d="M31.0,26.0 H32.0 V32.0 H31.0 Z" />
<path fill="#000000" d="M43.0,26.0 H44.0 V33.0 H43.0 Z" />
<path fill="#000000" d="M29.0,27.0 H31.0 V32.0 H29.0 Z" />
<path fill="#000000" d="M44.0,27.0 H46.0 V34.0 H44.0 Z" />
<path fill="#000000" d="M27.0,28.0 H29.0 V33.0 H27.0 Z" />
<path fill="#000000" d="M46.0,28.0 H47.0 V34.0 H46.0 Z" />
<path fill="#000000" d="M25.0,29.0 H27.0 V33.0 H25.0 Z" />
<path fill="#000000" d="M35.0,29.0 H39.0 V38.0 H35.0 Z" />
<path fill="#000000" d="M40.0,29.0 H41.0 V30.0 H40.0 Z" />
<path fill="#000000" d="M47.0,29.0 H49.0 V32.0 H47.0 Z" />
<path fill="#000000" d="M49.0,30.0 H50.0 V32.0 H49.0 Z" />
<path fill="#000000" d="M24.0,31.0 H25.0 V32.0 H24.0 Z" />
<path fill="#000000" d="M34.0,31.0 H35.0 V38.0 H34.0 Z" />
<path fill="#000000" d="M42.0,31.0 H43.0 V32.0 H42.0 Z" />
<path fill="#000000" d="M29.0,32.0 H30.0 V33.0 H29.0 Z" />
<path fill="#000000" d="M47.0,32.0 H48.0 V33.0 H47.0 Z" />
<path fill="#000000" d="M26.0,33.0 H28.0 V34.0 H26.0 Z" />
<path fill="#000000" d="M39.0,36.0 H40.0 V38.0 H39.0 Z" />
</svg>