<?xml version='1.0' encoding='UTF-8'?>
<svg xmlns="http://www.w3.org/2000/svg" version="1.1" width="75" height="93" shape-rendering="crispEdges">
<path fill="#000000" d="M34.0,46.0 H36.0 V60.0 H34.0 Z" />
<path fill="#000000" d="M33.0,47.0 H34.0 V62.0 H33.0 Z" />
<path fill="#000000" d="M36.0,47.0 H37.0 V59.0 H36.0 Z" />
<path fill="#000000" d="M32.0,48.0 H33.0 V56.0 H32.0 Z" />
<path fill="#000000" d="M37.0,48.0 H38.0 V58.0 H37.0 Z" />
<path fill="#000000" d="M31.0,49.0 H32.0 V55.0 H31.0 Z" />
<path fill="#000000" d="M38.0,49.0 H39.0 V56.0 H38.0 Z" />
<path fill="#000000" d="M30.0,50.0 H31.0 V54.0 H30.0 Z" />
<path fill="#000000" d="M39.0,50.0 H40.0 V54.0 H39.0 Z" />
<path fill="#000000" d="M29.0,51.0 H30.0 V53.0 H29.0 Z" />
<path fill="#000000" d="M40.0,51.0 H41.0 V53.0 H40.0 Z" />
<path fill="#000000" d="M32.0,59.0 H33.0 V63.0 H32.0 Z" />
<path fill="#000000" d="M31.0,60.0 H32.0 V64.0 H31.0 Z" />
<path fill="#000000" d="M34.0,60.0 H35.0 V61.0 H34.0 Z" />
<path fill="#000000" d="M30.0,61.0 H31.0 V64.0 H30.0 Z" />
</svg>