<?xml version='1.0' encoding='UTF-8'?>
<svg xmlns="http://www.w3.org/2000/svg" version="1.1" width="75" height="93" shape-rendering="crispEdges">
<path fill="#000000" d="M22.0,11.0 H47.0 V17.0 H22.0 Z" />
<path fill="#000000" d="M47.0,12.0 H48.0 V22.0 H47.0 Z" />
<path fill="#000000" d="M48.0,13.0 H49.0 V21.0 H48.0 Z" />
<path fill="#000000" d="M49.0,14.0 H50.0 V19.0 H49.0 Z" />
<path fill="#000000" d="M43.0,17.0 H47.0 V24.0 H43.0 Z" />
<path fill="#000000" d="M42.0,19.0 H43.0 V29.0 H42.0 Z" />
<path fill="#000000" d="M41.0,20.0 H42.0 V30.0 H41.0 Z" />
<path fill="#000000" d="M40.0,22.0 H41.0 V31.0 H40.0 Z" />
<path fill="#000000" d="M38.0,24.0 H40.0 V33.0 H38.0 Z" />
<path fill="#000000" d="M43.0,24.0 H45.0 V25.0 H43.0 Z" />
<path fill="#000000" d="M37.0,25.0 H38.0 V45.0 H37.0 Z" />
<path fill="#000000" d="M43.0,25.0 H44.0 V27.0 H43.0 Z" />
<path fill="#000000" d="M36.0,27.0 H37.0 V44.0 H36.0 Z" />
<path fill="#000000" d="M35.0,28.0 H36.0 V43.0 H35.0 Z" />
<path fill="#000000" d="M34.0,29.0 H35.0 V42.0 H34.0 Z" />
<path fill="#000000" d="M33.0,30.0 H34.0 V41.0 H33.0 Z" />
<path fill="#000000" d="M32.0,31.0 H33.0 V40.0 H32.0 Z" />
<path fill="#000000" d="M31.0,33.0 H32.0 V39.0 H31.0 Z" />
<path fill="#000000" d="M38.0,33.0 H39.0 V35.0 H38.0 Z" />
<path fill="#000000" d="M30.0,34.0 H31.0 V38.0 H30.0 Z" />
<path fill="#000000" d="M38.0,37.0 H39.0 V46.0 H38.0 Z" />
<path fill="#000000" d="M39.0,38.0 H40.0 V47.0 H39.0 Z" />
<path fill="#000000" d="M40.0,39.0 H41.0 V48.0 H40.0 Z" />
<path fill="#000000" d="M41.0,40.0 H42.0 V49.0 H41.0 Z" />
<path fill="#000000" d="M42.0,41.0 H43.0 V50.0 H42.0 Z" />
<path fill="#000000" d="M43.0,42.0 H44.0 V51.0 H43.0 Z" />
<path fill="#000000" d="M44.0,43.0 H45.0 V65.0 H44.0 Z" />
<path fill="#000000" d="M45.0,44.0 H46.0 V64.0 H45.0 Z" />
<path fill="#000000" d="M46.0,45.0 H47.0 V63.0 H46.0 Z" />
<path fill="#000000" d="M47.0,46.0 H48.0 V62.0 H47.0 Z" />
<path fill="#000000" d="M48.0,47.0 H49.0 V61.0 H48.0 Z" />
<path fill="#000000" d="M49.0,48.0 H50.0 V58.0 H49.0 Z" />
<path fill="#000000" d="M50.0,49.0 H51.0 V57.0 H50.0 Z" />
<path fill="#000000" d="M43.0,57.0 H44.0 V66.0 H43.0 Z" />
<path fill="#000000" d="M42.0,58.0 H43.0 V67.0 H42.0 Z" />
<path fill="#000000" d="M41.0,59.0 H42.0 V68.0 H41.0 Z" />
<path fill="#000000" d="M25.0,60.0 H28.0 V67.0 H25.0 Z" />
<path fill="#000000" d="M40.0,60.0 H41.0 V69.0 H40.0 Z" />
<path fill="#000000" d="M24.0,61.0 H25.0 V66.0 H24.0 Z" />
<path fill="#000000" d="M28.0,61.0 H29.0 V70.0 H28.0 Z" />
<path fill="#000000" d="M39.0,61.0 H40.0 V70.0 H39.0 Z" />
<path fill="#000000" d="M23.0,62.0 H24.0 V65.0 H23.0 Z" />
<path fill="#000000" d="M29.0,62.0 H30.0 V71.0 H29.0 Z" />
<path fill="#000000" d="M38.0,62.0 H39.0 V71.0 H38.0 Z" />
<path fill="#000000" d="M30.0,63.0 H31.0 V72.0 H30.0 Z" />
<path fill="#000000" d="M37.0,63.0 H38.0 V72.0 H37.0 Z" />
<path fill="#000000" d="M31.0,64.0 H32.0 V73.0 H31.0 Z" />
<path fill="#000000" d="M36.0,64.0 H37.0 V73.0 H36.0 Z" />
<path fill="#000000" d="M32.0,65.0 H33.0 V74.0 H32.0 Z" />
<path fill="#000000" d="M35.0,65.0 H36.0 V74.0 H35.0 Z" />
<path fill="#000000" d="M33.0,66.0 H35.0 V74.0 H33.0 Z" />
<path fill="#000000" d="M26.0,67.0 H28.0 V68.0 H26.0 Z" />
<path fill="#000000" d="M27.0,68.0 H28.0 V69.0 H27.0 Z" />
</svg>