<?xml version='1.0' encoding='UTF-8'?>
<svg xmlns="http://www.w3.org/2000/svg" version="1.1" width="75" height="93" shape-rendering="crispEdges">
<path fill="#000000" d="M38.0,11.0 H41.0 V25.0 H38.0 Z" />
<path fill="#000000" d="M41.0,12.0 H42.0 V73.0 H41.0 Z" />
<path fill="#000000" d="M37.0,13.0 H38.0 V26.0 H37.0 Z" />
<path fill="#000000" d="M42.0,14.0 H43.0 V73.0 H42.0 Z" />
<path fill="#000000" d="M36.0,15.0 H37.0 V28.0 H36.0 Z" />
<path fill="#000000" d="M43.0,15.0 H44.0 V73.0 H43.0 Z" />
<path fill="#000000" d="M44.0,16.0 H45.0 V73.0 H44.0 Z" />
<path fill="#000000" d="M35.0,17.0 H36.0 V30.0 H35.0 Z" />
<path fill="#000000" d="M34.0,18.0 H35.0 V32.0 H34.0 Z" />
<path fill="#000000" d="M45.0,18.0 H46.0 V73.0 H45.0 Z" />
<path fill="#000000" d="M33.0,20.0 H34.0 V37.0 H33.0 Z" />
<path fill="#000000" d="M32.0,22.0 H33.0 V39.0 H32.0 Z" />
<path fill="#000000" d="M31.0,25.0 H32.0 V41.0 H31.0 Z" />
<path fill="#000000" d="M40.0,25.0 H41.0 V73.0 H40.0 Z" />
<path fill="#000000" d="M30.0,30.0 H31.0 V43.0 H30.0 Z" />
<path fill="#000000" d="M29.0,32.0 H30.0 V46.0 H29.0 Z" />
<path fill="#000000" d="M28.0,33.0 H29.0 V48.0 H28.0 Z" />
<path fill="#000000" d="M27.0,35.0 H28.0 V55.0 H27.0 Z" />
<path fill="#000000" d="M26.0,38.0 H27.0 V55.0 H26.0 Z" />
<path fill="#000000" d="M25.0,40.0 H26.0 V55.0 H25.0 Z" />
<path fill="#000000" d="M24.0,43.0 H25.0 V55.0 H24.0 Z" />
<path fill="#000000" d="M23.0,45.0 H24.0 V55.0 H23.0 Z" />
<path fill="#000000" d="M22.0,47.0 H23.0 V55.0 H22.0 Z" />
<path fill="#000000" d="M28.0,50.0 H40.0 V55.0 H28.0 Z" />
<path fill="#000000" d="M46.0,50.0 H54.0 V56.0 H46.0 Z" />
<path fill="#000000" d="M21.0,51.0 H22.0 V55.0 H21.0 Z" />
</svg>