<?xml version='1.0' encoding='UTF-8'?>
<svg xmlns="http://www.w3.org/2000/svg" version="1.1" width="75" height="93" shape-rendering="crispEdges">
<path fill="#000000" d="M25.0,10.0 H51.0 V17.0 H25.0 Z" />
<path fill="#000000" d="M25.0,17.0 H32.0 V40.0 H25.0 Z" />
<path fill="#000000" d="M32.0,35.0 H45.0 V40.0 H32.0 Z" />
<path fill="#000000" d="M45.0,36.0 H46.0 V46.0 H45.0 Z" />
<path fill="#000000" d="M46.0,37.0 H47.0 V47.0 H46.0 Z" />
<path fill="#000000" d="M47.0,38.0 H48.0 V57.0 H47.0 Z" />
<path fill="#000000" d="M48.0,39.0 H49.0 V56.0 H48.0 Z" />
<path fill="#000000" d="M40.0,40.0 H45.0 V41.0 H40.0 Z" />
<path fill="#000000" d="M49.0,40.0 H50.0 V55.0 H49.0 Z" />
<path fill="#000000" d="M41.0,41.0 H45.0 V42.0 H41.0 Z" />
<path fill="#000000" d="M50.0,41.0 H51.0 V54.0 H50.0 Z" />
<path fill="#000000" d="M42.0,42.0 H45.0 V43.0 H42.0 Z" />
<path fill="#000000" d="M51.0,42.0 H52.0 V53.0 H51.0 Z" />
<path fill="#000000" d="M43.0,43.0 H45.0 V44.0 H43.0 Z" />
<path fill="#000000" d="M52.0,43.0 H53.0 V52.0 H52.0 Z" />
<path fill="#000000" d="M44.0,44.0 H45.0 V45.0 H44.0 Z" />
<path fill="#000000" d="M53.0,44.0 H54.0 V51.0 H53.0 Z" />
<path fill="#000000" d="M54.0,45.0 H55.0 V50.0 H54.0 Z" />
<path fill="#000000" d="M55.0,46.0 H56.0 V49.0 H55.0 Z" />
<path fill="#000000" d="M56.0,47.0 H57.0 V48.0 H56.0 Z" />
<path fill="#000000" d="M46.0,48.0 H47.0 V58.0 H46.0 Z" />
<path fill="#000000" d="M45.0,49.0 H46.0 V59.0 H45.0 Z" />
<path fill="#000000" d="M44.0,50.0 H45.0 V60.0 H44.0 Z" />
<path fill="#000000" d="M43.0,51.0 H44.0 V61.0 H43.0 Z" />
<path fill="#000000" d="M42.0,52.0 H43.0 V61.0 H42.0 Z" />
<path fill="#000000" d="M41.0,53.0 H42.0 V62.0 H41.0 Z" />
<path fill="#000000" d="M39.0,54.0 H41.0 V63.0 H39.0 Z" />
<path fill="#000000" d="M38.0,55.0 H39.0 V65.0 H38.0 Z" />
<path fill="#000000" d="M37.0,56.0 H38.0 V66.0 H37.0 Z" />
<path fill="#000000" d="M20.0,57.0 H23.0 V61.0 H20.0 Z" />
<path fill="#000000" d="M36.0,57.0 H37.0 V66.0 H36.0 Z" />
<path fill="#000000" d="M23.0,58.0 H27.0 V65.0 H23.0 Z" />
<path fill="#000000" d="M35.0,58.0 H36.0 V66.0 H35.0 Z" />
<path fill="#000000" d="M27.0,59.0 H30.0 V66.0 H27.0 Z" />
<path fill="#000000" d="M34.0,59.0 H35.0 V67.0 H34.0 Z" />
<path fill="#000000" d="M30.0,60.0 H34.0 V67.0 H30.0 Z" />
<path fill="#000000" d="M21.0,61.0 H23.0 V62.0 H21.0 Z" />
<path fill="#000000" d="M22.0,62.0 H23.0 V63.0 H22.0 Z" />
<path fill="#000000" d="M39.0,63.0 H40.0 V64.0 H39.0 Z" />
<path fill="#000000" d="M25.0,65.0 H27.0 V66.0 H25.0 Z" />
<path fill="#000000" d="M28.0,66.0 H30.0 V67.0 H28.0 Z" />
</svg>