<?xml version='1.0' encoding='UTF-8'?>
<svg xmlns="http://www.w3.org/2000/svg" version="1.1" width="75" height="93" shape-rendering="crispEdges">
<path fill="#000000" d="M20.0,11.0 H52.0 V15.0 H20.0 Z" />
<path fill="#000000" d="M20.0,15.0 H51.0 V17.0 H20.0 Z" />
<path fill="#000000" d="M44.0,17.0 H50.0 V20.0 H44.0 Z" />
<path fill="#000000" d="M43.0,19.0 H44.0 V37.0 H43.0 Z" />
<path fill="#000000" d="M44.0,20.0 H49.0 V22.0 H44.0 Z" />
<path fill="#000000" d="M42.0,22.0 H43.0 V39.0 H42.0 Z" />
<path fill="#000000" d="M44.0,22.0 H48.0 V24.0 H44.0 Z" />
<path fill="#000000" d="M41.0,24.0 H42.0 V41.0 H41.0 Z" />
<path fill="#000000" d="M44.0,24.0 H47.0 V28.0 H44.0 Z" />
<path fill="#000000" d="M40.0,26.0 H41.0 V43.0 H40.0 Z" />
<path fill="#000000" d="M44.0,28.0 H46.0 V30.0 H44.0 Z" />
<path fill="#000000" d="M39.0,30.0 H40.0 V48.0 H39.0 Z" />
<path fill="#000000" d="M44.0,30.0 H45.0 V33.0 H44.0 Z" />
<path fill="#000000" d="M38.0,32.0 H39.0 V51.0 H38.0 Z" />
<path fill="#000000" d="M37.0,34.0 H38.0 V52.0 H37.0 Z" />
<path fill="#000000" d="M36.0,36.0 H37.0 V53.0 H36.0 Z" />
<path fill="#000000" d="M35.0,39.0 H36.0 V58.0 H35.0 Z" />
<path fill="#000000" d="M34.0,42.0 H35.0 V60.0 H34.0 Z" />
<path fill="#000000" d="M33.0,43.0 H34.0 V63.0 H33.0 Z" />
<path fill="#000000" d="M32.0,46.0 H33.0 V66.0 H32.0 Z" />
<path fill="#000000" d="M31.0,53.0 H32.0 V70.0 H31.0 Z" />
<path fill="#000000" d="M30.0,55.0 H31.0 V71.0 H30.0 Z" />
<path fill="#000000" d="M29.0,58.0 H30.0 V71.0 H29.0 Z" />
<path fill="#000000" d="M28.0,60.0 H29.0 V72.0 H28.0 Z" />
<path fill="#000000" d="M27.0,62.0 H28.0 V72.0 H27.0 Z" />
<path fill="#000000" d="M26.0,65.0 H27.0 V72.0 H26.0 Z" />
<path fill="#000000" d="M25.0,67.0 H26.0 V72.0 H25.0 Z" />
</svg>