<?xml version='1.0' encoding='UTF-8'?>
<svg xmlns="http://www.w3.org/2000/svg" version="1.1" width="75" height="93" shape-rendering="crispEdges">
<path fill="#000000" d="M35.0,23.0 H36.0 V36.0 H35.0 Z" />
<path fill="#000000" d="M34.0,24.0 H35.0 V35.0 H34.0 Z" />
<path fill="#000000" d="M36.0,24.0 H37.0 V35.0 H36.0 Z" />
<path fill="#000000" d="M33.0,25.0 H34.0 V34.0 H33.0 Z" />
<path fill="#000000" d="M37.0,25.0 H38.0 V34.0 H37.0 Z" />
<path fill="#000000" d="M32.0,26.0 H33.0 V33.0 H32.0 Z" />
<path fill="#000000" d="M38.0,26.0 H39.0 V33.0 H38.0 Z" />
<path fill="#000000" d="M31.0,27.0 H32.0 V32.0 H31.0 Z" />
<path fill="#000000" d="M39.0,27.0 H40.0 V32.0 H39.0 Z" />
<path fill="#000000" d="M30.0,28.0 H31.0 V31.0 H30.0 Z" />
<path fill="#000000" d="M40.0,28.0 H41.0 V31.0 H40.0 Z" />
<path fill="#000000" d="M29.0,29.0 H30.0 V30.0 H29.0 Z" />
<path fill="#000000" d="M41.0,29.0 H42.0 V30.0 H41.0 Z" />
<path fill="#000000" d="M35.0,43.0 H36.0 V56.0 H35.0 Z" />
<path fill="#000000" d="M34.0,44.0 H35.0 V55.0 H34.0 Z" />
<path fill="#000000" d="M36.0,44.0 H37.0 V55.0 H36.0 Z" />
<path fill="#000000" d="M33.0,45.0 H34.0 V54.0 H33.0 Z" />
<path fill="#000000" d="M37.0,45.0 H38.0 V54.0 H37.0 Z" />
<path fill="#000000" d="M32.0,46.0 H33.0 V53.0 H32.0 Z" />
<path fill="#000000" d="M38.0,46.0 H39.0 V53.0 H38.0 Z" />
<path fill="#000000" d="M31.0,47.0 H32.0 V52.0 H31.0 Z" />
<path fill="#000000" d="M39.0,47.0 H40.0 V52.0 H39.0 Z" />
<path fill="#000000" d="M30.0,48.0 H31.0 V51.0 H30.0 Z" />
<path fill="#000000" d="M40.0,48.0 H41.0 V51.0 H40.0 Z" />
<path fill="#000000" d="M29.0,49.0 H30.0 V50.0 H29.0 Z" />
<path fill="#000000" d="M41.0,49.0 H42.0 V50.0 H41.0 Z" />
</svg>