<?xml version='1.0' encoding='UTF-8'?>
<svg xmlns="http://www.w3.org/2000/svg" version="1.1" width="75" height="93" shape-rendering="crispEdges">
<path fill="#000000" d="M33.0,11.0 H39.0 V18.0 H33.0 Z" />
<path fill="#000000" d="M29.0,12.0 H33.0 V18.0 H29.0 Z" />
<path fill="#000000" d="M39.0,12.0 H43.0 V18.0 H39.0 Z" />
<path fill="#000000" d="M28.0,13.0 H29.0 V21.0 H28.0 Z" />
<path fill="#000000" d="M43.0,13.0 H44.0 V35.0 H43.0 Z" />
<path fill="#000000" d="M27.0,14.0 H28.0 V22.0 H27.0 Z" />
<path fill="#000000" d="M26.0,15.0 H27.0 V25.0 H26.0 Z" />
<path fill="#000000" d="M44.0,15.0 H45.0 V33.0 H44.0 Z" />
<path fill="#000000" d="M25.0,16.0 H26.0 V25.0 H25.0 Z" />
<path fill="#000000" d="M45.0,16.0 H46.0 V32.0 H45.0 Z" />
<path fill="#000000" d="M24.0,18.0 H25.0 V25.0 H24.0 Z" />
<path fill="#000000" d="M29.0,18.0 H30.0 V19.0 H29.0 Z" />
<path fill="#000000" d="M40.0,18.0 H43.0 V19.0 H40.0 Z" />
<path fill="#000000" d="M46.0,18.0 H47.0 V31.0 H46.0 Z" />
<path fill="#000000" d="M23.0,19.0 H24.0 V25.0 H23.0 Z" />
<path fill="#000000" d="M41.0,19.0 H43.0 V20.0 H41.0 Z" />
<path fill="#000000" d="M42.0,20.0 H43.0 V22.0 H42.0 Z" />
<path fill="#000000" d="M22.0,21.0 H23.0 V25.0 H22.0 Z" />
<path fill="#000000" d="M47.0,21.0 H48.0 V29.0 H47.0 Z" />
<path fill="#000000" d="M42.0,28.0 H43.0 V37.0 H42.0 Z" />
<path fill="#000000" d="M41.0,30.0 H42.0 V38.0 H41.0 Z" />
<path fill="#000000" d="M40.0,32.0 H41.0 V39.0 H40.0 Z" />
<path fill="#000000" d="M39.0,33.0 H40.0 V41.0 H39.0 Z" />
<path fill="#000000" d="M38.0,34.0 H39.0 V42.0 H38.0 Z" />
<path fill="#000000" d="M37.0,35.0 H38.0 V55.0 H37.0 Z" />
<path fill="#000000" d="M36.0,36.0 H37.0 V55.0 H36.0 Z" />
<path fill="#000000" d="M35.0,37.0 H36.0 V55.0 H35.0 Z" />
<path fill="#000000" d="M34.0,38.0 H35.0 V55.0 H34.0 Z" />
<path fill="#000000" d="M33.0,39.0 H34.0 V55.0 H33.0 Z" />
<path fill="#000000" d="M32.0,40.0 H33.0 V55.0 H32.0 Z" />
<path fill="#000000" d="M33.0,64.0 H37.0 V73.0 H33.0 Z" />
<path fill="#000000" d="M32.0,65.0 H33.0 V72.0 H32.0 Z" />
<path fill="#000000" d="M37.0,65.0 H38.0 V72.0 H37.0 Z" />
<path fill="#000000" d="M31.0,66.0 H32.0 V71.0 H31.0 Z" />
<path fill="#000000" d="M38.0,66.0 H39.0 V71.0 H38.0 Z" />
</svg>