<?xml version='1.0' encoding='UTF-8'?>
<svg xmlns="http://www.w3.org/2000/svg" version="1.1" width="75" height="93" shape-rendering="crispEdges">
<path fill="#000000" d="M22.0,12.0 H29.0 V90.0 H22.0 Z" />
<path fill="#000000" d="M29.0,13.0 H31.0 V21.0 H29.0 Z" />
<path fill="#000000" d="M31.0,14.0 H32.0 V23.0 H31.0 Z" />
<path fill="#000000" d="M32.0,16.0 H33.0 V24.0 H32.0 Z" />
<path fill="#000000" d="M33.0,17.0 H34.0 V25.0 H33.0 Z" />
<path fill="#000000" d="M34.0,18.0 H36.0 V26.0 H34.0 Z" />
<path fill="#000000" d="M36.0,19.0 H37.0 V28.0 H36.0 Z" />
<path fill="#000000" d="M37.0,20.0 H38.0 V29.0 H37.0 Z" />
<path fill="#000000" d="M30.0,21.0 H31.0 V22.0 H30.0 Z" />
<path fill="#000000" d="M38.0,21.0 H39.0 V30.0 H38.0 Z" />
<path fill="#000000" d="M39.0,22.0 H40.0 V31.0 H39.0 Z" />
<path fill="#000000" d="M40.0,23.0 H41.0 V32.0 H40.0 Z" />
<path fill="#000000" d="M41.0,24.0 H43.0 V43.0 H41.0 Z" />
<path fill="#000000" d="M43.0,25.0 H44.0 V42.0 H43.0 Z" />
<path fill="#000000" d="M35.0,26.0 H36.0 V27.0 H35.0 Z" />
<path fill="#000000" d="M44.0,26.0 H45.0 V41.0 H44.0 Z" />
<path fill="#000000" d="M45.0,27.0 H46.0 V40.0 H45.0 Z" />
<path fill="#000000" d="M46.0,28.0 H47.0 V39.0 H46.0 Z" />
<path fill="#000000" d="M47.0,30.0 H48.0 V37.0 H47.0 Z" />
<path fill="#000000" d="M48.0,31.0 H49.0 V36.0 H48.0 Z" />
<path fill="#000000" d="M40.0,37.0 H41.0 V45.0 H40.0 Z" />
<path fill="#000000" d="M39.0,38.0 H40.0 V47.0 H39.0 Z" />
<path fill="#000000" d="M38.0,39.0 H39.0 V48.0 H38.0 Z" />
<path fill="#000000" d="M37.0,40.0 H38.0 V49.0 H37.0 Z" />
<path fill="#000000" d="M36.0,41.0 H37.0 V50.0 H36.0 Z" />
<path fill="#000000" d="M35.0,42.0 H36.0 V50.0 H35.0 Z" />
<path fill="#000000" d="M34.0,43.0 H35.0 V61.0 H34.0 Z" />
<path fill="#000000" d="M41.0,43.0 H42.0 V44.0 H41.0 Z" />
<path fill="#000000" d="M33.0,44.0 H34.0 V60.0 H33.0 Z" />
<path fill="#000000" d="M32.0,45.0 H33.0 V59.0 H32.0 Z" />
<path fill="#000000" d="M31.0,46.0 H32.0 V58.0 H31.0 Z" />
<path fill="#000000" d="M29.0,47.0 H31.0 V57.0 H29.0 Z" />
<path fill="#000000" d="M35.0,52.0 H37.0 V61.0 H35.0 Z" />
<path fill="#000000" d="M37.0,53.0 H38.0 V63.0 H37.0 Z" />
<path fill="#000000" d="M38.0,54.0 H39.0 V64.0 H38.0 Z" />
<path fill="#000000" d="M39.0,55.0 H40.0 V65.0 H39.0 Z" />
<path fill="#000000" d="M40.0,57.0 H41.0 V67.0 H40.0 Z" />
<path fill="#000000" d="M41.0,58.0 H42.0 V68.0 H41.0 Z" />
<path fill="#000000" d="M42.0,59.0 H43.0 V78.0 H42.0 Z" />
<path fill="#000000" d="M43.0,60.0 H45.0 V75.0 H43.0 Z" />
<path fill="#000000" d="M36.0,61.0 H37.0 V62.0 H36.0 Z" />
<path fill="#000000" d="M45.0,61.0 H46.0 V74.0 H45.0 Z" />
<path fill="#000000" d="M46.0,62.0 H47.0 V73.0 H46.0 Z" />
<path fill="#000000" d="M47.0,64.0 H48.0 V71.0 H47.0 Z" />
<path fill="#000000" d="M48.0,65.0 H49.0 V70.0 H48.0 Z" />
<path fill="#000000" d="M41.0,70.0 H42.0 V78.0 H41.0 Z" />
<path fill="#000000" d="M40.0,71.0 H41.0 V79.0 H40.0 Z" />
<path fill="#000000" d="M39.0,72.0 H40.0 V80.0 H39.0 Z" />
<path fill="#000000" d="M38.0,73.0 H39.0 V81.0 H38.0 Z" />
<path fill="#000000" d="M37.0,74.0 H38.0 V81.0 H37.0 Z" />
<path fill="#000000" d="M36.0,75.0 H37.0 V82.0 H36.0 Z" />
<path fill="#000000" d="M43.0,75.0 H44.0 V77.0 H43.0 Z" />
<path fill="#000000" d="M35.0,76.0 H36.0 V83.0 H35.0 Z" />
<path fill="#000000" d="M33.0,77.0 H35.0 V84.0 H33.0 Z" />
<path fill="#000000" d="M32.0,78.0 H33.0 V86.0 H32.0 Z" />
<path fill="#000000" d="M29.0,79.0 H32.0 V87.0 H29.0 Z" />
<path fill="#000000" d="M33.0,84.0 H34.0 V85.0 H33.0 Z" />
<path fill="#000000" d="M29.0,87.0 H31.0 V88.0 H29.0 Z" />
<path fill="#000000" d="M29.0,88.0 H30.0 V89.0 H29.0 Z" />
</svg>