<?xml version='1.0' encoding='UTF-8'?>
<svg xmlns="http://www.w3.org/2000/svg" version="1.1" width="75" height="93" shape-rendering="crispEdges">
<path fill="#000000" d="M22.0,14.0 H28.0 V89.0 H22.0 Z" />
<path fill="#000000" d="M44.0,14.0 H50.0 V90.0 H44.0 Z" />
<path fill="#000000" d="M28.0,43.0 H31.0 V53.0 H28.0 Z" />
<path fill="#000000" d="M31.0,44.0 H32.0 V53.0 H31.0 Z" />
<path fill="#000000" d="M32.0,45.0 H33.0 V53.0 H32.0 Z" />
<path fill="#000000" d="M33.0,46.0 H35.0 V54.0 H33.0 Z" />
<path fill="#000000" d="M35.0,47.0 H36.0 V55.0 H35.0 Z" />
<path fill="#000000" d="M36.0,48.0 H37.0 V56.0 H36.0 Z" />
<path fill="#000000" d="M37.0,49.0 H38.0 V57.0 H37.0 Z" />
<path fill="#000000" d="M38.0,50.0 H40.0 V57.0 H38.0 Z" />
<path fill="#000000" d="M40.0,51.0 H42.0 V59.0 H40.0 Z" />
<path fill="#000000" d="M42.0,52.0 H43.0 V61.0 H42.0 Z" />
<path fill="#000000" d="M28.0,53.0 H29.0 V54.0 H28.0 Z" />
<path fill="#000000" d="M43.0,53.0 H44.0 V62.0 H43.0 Z" />
<path fill="#000000" d="M34.0,54.0 H35.0 V55.0 H34.0 Z" />
<path fill="#000000" d="M39.0,57.0 H40.0 V58.0 H39.0 Z" />
<path fill="#000000" d="M41.0,59.0 H42.0 V60.0 H41.0 Z" />
</svg>