<?xml version='1.0' encoding='UTF-8'?>
<svg xmlns="http://www.w3.org/2000/svg" version="1.1" width="75" height="93" shape-rendering="crispEdges">
<path fill="#000000" d="M37.0,14.0 H45.0 V37.0 H37.0 Z" />
<path fill="#000000" d="M38.0,37.0 H45.0 V87.0 H38.0 Z" />
<path fill="#000000" d="M22.0,62.0 H23.0 V71.0 H22.0 Z" />
<path fill="#000000" d="M21.0,63.0 H22.0 V69.0 H21.0 Z" />
<path fill="#000000" d="M23.0,63.0 H25.0 V72.0 H23.0 Z" />
<path fill="#000000" d="M20.0,64.0 H21.0 V69.0 H20.0 Z" />
<path fill="#000000" d="M25.0,64.0 H26.0 V75.0 H25.0 Z" />
<path fill="#000000" d="M19.0,65.0 H20.0 V68.0 H19.0 Z" />
<path fill="#000000" d="M26.0,65.0 H27.0 V76.0 H26.0 Z" />
<path fill="#000000" d="M27.0,66.0 H28.0 V77.0 H27.0 Z" />
<path fill="#000000" d="M28.0,67.0 H29.0 V78.0 H28.0 Z" />
<path fill="#000000" d="M29.0,68.0 H30.0 V79.0 H29.0 Z" />
<path fill="#000000" d="M30.0,69.0 H31.0 V80.0 H30.0 Z" />
<path fill="#000000" d="M31.0,70.0 H32.0 V81.0 H31.0 Z" />
<path fill="#000000" d="M32.0,71.0 H33.0 V82.0 H32.0 Z" />
<path fill="#000000" d="M24.0,72.0 H25.0 V73.0 H24.0 Z" />
<path fill="#000000" d="M33.0,72.0 H34.0 V83.0 H33.0 Z" />
<path fill="#000000" d="M34.0,73.0 H35.0 V84.0 H34.0 Z" />
<path fill="#000000" d="M35.0,74.0 H38.0 V85.0 H35.0 Z" />
<path fill="#000000" d="M36.0,85.0 H38.0 V86.0 H36.0 Z" />
<path fill="#000000" d="M37.0,86.0 H38.0 V87.0 H37.0 Z" />
</svg>