<?xml version='1.0' encoding='UTF-8'?>
<svg xmlns="http://www.w3.org/2000/svg" version="1.1" width="75" height="93" shape-rendering="crispEdges">
<path fill="#000000" d="M22.0,14.0 H31.0 V68.0 H22.0 Z" />
<path fill="#000000" d="M47.0,14.0 H48.0 V24.0 H47.0 Z" />
<path fill="#000000" d="M46.0,15.0 H47.0 V26.0 H46.0 Z" />
<path fill="#000000" d="M48.0,15.0 H49.0 V23.0 H48.0 Z" />
<path fill="#000000" d="M45.0,16.0 H46.0 V27.0 H45.0 Z" />
<path fill="#000000" d="M49.0,16.0 H50.0 V22.0 H49.0 Z" />
<path fill="#000000" d="M44.0,17.0 H45.0 V29.0 H44.0 Z" />
<path fill="#000000" d="M50.0,17.0 H51.0 V20.0 H50.0 Z" />
<path fill="#000000" d="M43.0,18.0 H44.0 V31.0 H43.0 Z" />
<path fill="#000000" d="M51.0,18.0 H52.0 V19.0 H51.0 Z" />
<path fill="#000000" d="M42.0,20.0 H43.0 V32.0 H42.0 Z" />
<path fill="#000000" d="M41.0,21.0 H42.0 V33.0 H41.0 Z" />
<path fill="#000000" d="M40.0,23.0 H41.0 V34.0 H40.0 Z" />
<path fill="#000000" d="M39.0,24.0 H40.0 V36.0 H39.0 Z" />
<path fill="#000000" d="M38.0,25.0 H39.0 V37.0 H38.0 Z" />
<path fill="#000000" d="M37.0,27.0 H38.0 V38.0 H37.0 Z" />
<path fill="#000000" d="M36.0,28.0 H37.0 V39.0 H36.0 Z" />
<path fill="#000000" d="M35.0,29.0 H36.0 V40.0 H35.0 Z" />
<path fill="#000000" d="M34.0,31.0 H35.0 V41.0 H34.0 Z" />
<path fill="#000000" d="M33.0,32.0 H34.0 V42.0 H33.0 Z" />
<path fill="#000000" d="M32.0,33.0 H33.0 V44.0 H32.0 Z" />
<path fill="#000000" d="M31.0,34.0 H32.0 V68.0 H31.0 Z" />
<path fill="#000000" d="M32.0,55.0 H33.0 V68.0 H32.0 Z" />
<path fill="#000000" d="M33.0,57.0 H34.0 V69.0 H33.0 Z" />
<path fill="#000000" d="M34.0,58.0 H35.0 V70.0 H34.0 Z" />
<path fill="#000000" d="M35.0,59.0 H36.0 V70.0 H35.0 Z" />
<path fill="#000000" d="M36.0,60.0 H37.0 V71.0 H36.0 Z" />
<path fill="#000000" d="M37.0,61.0 H38.0 V72.0 H37.0 Z" />
<path fill="#000000" d="M38.0,62.0 H39.0 V73.0 H38.0 Z" />
<path fill="#000000" d="M39.0,63.0 H40.0 V74.0 H39.0 Z" />
<path fill="#000000" d="M40.0,64.0 H41.0 V75.0 H40.0 Z" />
<path fill="#000000" d="M41.0,65.0 H42.0 V76.0 H41.0 Z" />
<path fill="#000000" d="M42.0,66.0 H43.0 V77.0 H42.0 Z" />
<path fill="#000000" d="M43.0,67.0 H44.0 V78.0 H43.0 Z" />
<path fill="#000000" d="M22.0,68.0 H30.0 V90.0 H22.0 Z" />
<path fill="#000000" d="M44.0,68.0 H45.0 V79.0 H44.0 Z" />
<path fill="#000000" d="M45.0,69.0 H46.0 V80.0 H45.0 Z" />
<path fill="#000000" d="M46.0,70.0 H47.0 V81.0 H46.0 Z" />
<path fill="#000000" d="M47.0,71.0 H48.0 V82.0 H47.0 Z" />
<path fill="#000000" d="M48.0,72.0 H49.0 V83.0 H48.0 Z" />
<path fill="#000000" d="M49.0,73.0 H50.0 V84.0 H49.0 Z" />
<path fill="#000000" d="M50.0,74.0 H51.0 V85.0 H50.0 Z" />
<path fill="#000000" d="M51.0,75.0 H52.0 V86.0 H51.0 Z" />
<path fill="#000000" d="M52.0,76.0 H53.0 V87.0 H52.0 Z" />
<path fill="#000000" d="M53.0,77.0 H54.0 V86.0 H53.0 Z" />
<path fill="#000000" d="M54.0,78.0 H55.0 V85.0 H54.0 Z" />
<path fill="#000000" d="M55.0,79.0 H56.0 V84.0 H55.0 Z" />
<path fill="#000000" d="M56.0,80.0 H57.0 V83.0 H56.0 Z" />
<path fill="#000000" d="M57.0,81.0 H58.0 V82.0 H57.0 Z" />
</svg>