<?xml version='1.0' encoding='UTF-8'?>
<svg xmlns="http://www.w3.org/2000/svg" version="1.1" width="75" height="93" shape-rendering="crispEdges">
<path fill="#000000" d="M22.0,14.0 H29.0 V89.0 H22.0 Z" />
<path fill="#000000" d="M46.0,62.0 H47.0 V71.0 H46.0 Z" />
<path fill="#000000" d="M45.0,63.0 H46.0 V72.0 H45.0 Z" />
<path fill="#000000" d="M47.0,63.0 H48.0 V70.0 H47.0 Z" />
<path fill="#000000" d="M44.0,64.0 H45.0 V73.0 H44.0 Z" />
<path fill="#000000" d="M48.0,64.0 H49.0 V69.0 H48.0 Z" />
<path fill="#000000" d="M43.0,65.0 H44.0 V74.0 H43.0 Z" />
<path fill="#000000" d="M49.0,65.0 H50.0 V68.0 H49.0 Z" />
<path fill="#000000" d="M42.0,66.0 H43.0 V75.0 H42.0 Z" />
<path fill="#000000" d="M50.0,66.0 H51.0 V67.0 H50.0 Z" />
<path fill="#000000" d="M41.0,67.0 H42.0 V76.0 H41.0 Z" />
<path fill="#000000" d="M40.0,68.0 H41.0 V77.0 H40.0 Z" />
<path fill="#000000" d="M39.0,69.0 H40.0 V78.0 H39.0 Z" />
<path fill="#000000" d="M38.0,70.0 H39.0 V79.0 H38.0 Z" />
<path fill="#000000" d="M37.0,71.0 H38.0 V80.0 H37.0 Z" />
<path fill="#000000" d="M36.0,72.0 H37.0 V81.0 H36.0 Z" />
<path fill="#000000" d="M35.0,73.0 H36.0 V82.0 H35.0 Z" />
<path fill="#000000" d="M34.0,74.0 H35.0 V83.0 H34.0 Z" />
<path fill="#000000" d="M33.0,75.0 H34.0 V84.0 H33.0 Z" />
<path fill="#000000" d="M32.0,76.0 H33.0 V85.0 H32.0 Z" />
<path fill="#000000" d="M31.0,77.0 H32.0 V86.0 H31.0 Z" />
<path fill="#000000" d="M30.0,78.0 H31.0 V87.0 H30.0 Z" />
<path fill="#000000" d="M29.0,79.0 H30.0 V88.0 H29.0 Z" />
</svg>