<?xml version='1.0' encoding='UTF-8'?>
<svg xmlns="http://www.w3.org/2000/svg" version="1.1" width="75" height="93" shape-rendering="crispEdges">
<path fill="#000000" d="M18.0,14.0 H23.0 V89.0 H18.0 Z" />
<path fill="#000000" d="M49.0,14.0 H54.0 V89.0 H49.0 Z" />
<path fill="#000000" d="M23.0,15.0 H24.0 V89.0 H23.0 Z" />
<path fill="#000000" d="M48.0,15.0 H49.0 V89.0 H48.0 Z" />
<path fill="#000000" d="M24.0,16.0 H25.0 V30.0 H24.0 Z" />
<path fill="#000000" d="M47.0,16.0 H48.0 V89.0 H47.0 Z" />
<path fill="#000000" d="M25.0,19.0 H26.0 V31.0 H25.0 Z" />
<path fill="#000000" d="M46.0,19.0 H47.0 V30.0 H46.0 Z" />
<path fill="#000000" d="M26.0,20.0 H27.0 V32.0 H26.0 Z" />
<path fill="#000000" d="M45.0,20.0 H46.0 V31.0 H45.0 Z" />
<path fill="#000000" d="M27.0,21.0 H28.0 V33.0 H27.0 Z" />
<path fill="#000000" d="M44.0,21.0 H45.0 V32.0 H44.0 Z" />
<path fill="#000000" d="M28.0,24.0 H30.0 V34.0 H28.0 Z" />
<path fill="#000000" d="M42.0,24.0 H44.0 V33.0 H42.0 Z" />
<path fill="#000000" d="M30.0,25.0 H31.0 V36.0 H30.0 Z" />
<path fill="#000000" d="M41.0,25.0 H42.0 V35.0 H41.0 Z" />
<path fill="#000000" d="M31.0,26.0 H32.0 V37.0 H31.0 Z" />
<path fill="#000000" d="M40.0,26.0 H41.0 V36.0 H40.0 Z" />
<path fill="#000000" d="M32.0,29.0 H33.0 V48.0 H32.0 Z" />
<path fill="#000000" d="M39.0,29.0 H40.0 V37.0 H39.0 Z" />
<path fill="#000000" d="M33.0,31.0 H34.0 V48.0 H33.0 Z" />
<path fill="#000000" d="M38.0,31.0 H39.0 V49.0 H38.0 Z" />
<path fill="#000000" d="M34.0,32.0 H38.0 V48.0 H34.0 Z" />
<path fill="#000000" d="M42.0,33.0 H43.0 V34.0 H42.0 Z" />
<path fill="#000000" d="M29.0,34.0 H30.0 V35.0 H29.0 Z" />
<path fill="#000000" d="M39.0,41.0 H40.0 V50.0 H39.0 Z" />
<path fill="#000000" d="M31.0,42.0 H32.0 V49.0 H31.0 Z" />
<path fill="#000000" d="M40.0,42.0 H41.0 V52.0 H40.0 Z" />
<path fill="#000000" d="M30.0,43.0 H31.0 V50.0 H30.0 Z" />
<path fill="#000000" d="M41.0,43.0 H42.0 V53.0 H41.0 Z" />
<path fill="#000000" d="M29.0,44.0 H30.0 V52.0 H29.0 Z" />
<path fill="#000000" d="M42.0,44.0 H43.0 V54.0 H42.0 Z" />
<path fill="#000000" d="M28.0,45.0 H29.0 V53.0 H28.0 Z" />
<path fill="#000000" d="M43.0,45.0 H44.0 V55.0 H43.0 Z" />
<path fill="#000000" d="M27.0,46.0 H28.0 V54.0 H27.0 Z" />
<path fill="#000000" d="M26.0,47.0 H27.0 V57.0 H26.0 Z" />
<path fill="#000000" d="M44.0,47.0 H45.0 V56.0 H44.0 Z" />
<path fill="#000000" d="M25.0,48.0 H26.0 V59.0 H25.0 Z" />
<path fill="#000000" d="M45.0,48.0 H46.0 V57.0 H45.0 Z" />
<path fill="#000000" d="M24.0,49.0 H25.0 V89.0 H24.0 Z" />
<path fill="#000000" d="M46.0,49.0 H47.0 V59.0 H46.0 Z" />
</svg>