<?xml version='1.0' encoding='UTF-8'?>
<svg xmlns="http://www.w3.org/2000/svg" version="1.1" width="75" height="93" shape-rendering="crispEdges">
<path fill="#000000" d="M20.0,14.0 H26.0 V89.0 H20.0 Z" />
<path fill="#000000" d="M44.0,14.0 H51.0 V89.0 H44.0 Z" />
<path fill="#000000" d="M26.0,26.0 H27.0 V36.0 H26.0 Z" />
<path fill="#000000" d="M27.0,27.0 H28.0 V37.0 H27.0 Z" />
<path fill="#000000" d="M28.0,28.0 H29.0 V38.0 H28.0 Z" />
<path fill="#000000" d="M29.0,29.0 H30.0 V39.0 H29.0 Z" />
<path fill="#000000" d="M30.0,30.0 H31.0 V40.0 H30.0 Z" />
<path fill="#000000" d="M31.0,32.0 H32.0 V41.0 H31.0 Z" />
<path fill="#000000" d="M32.0,33.0 H33.0 V43.0 H32.0 Z" />
<path fill="#000000" d="M33.0,34.0 H34.0 V44.0 H33.0 Z" />
<path fill="#000000" d="M34.0,35.0 H35.0 V45.0 H34.0 Z" />
<path fill="#000000" d="M35.0,36.0 H36.0 V46.0 H35.0 Z" />
<path fill="#000000" d="M36.0,37.0 H37.0 V48.0 H36.0 Z" />
<path fill="#000000" d="M37.0,39.0 H38.0 V50.0 H37.0 Z" />
<path fill="#000000" d="M38.0,40.0 H39.0 V51.0 H38.0 Z" />
<path fill="#000000" d="M39.0,42.0 H40.0 V53.0 H39.0 Z" />
<path fill="#000000" d="M40.0,44.0 H41.0 V55.0 H40.0 Z" />
<path fill="#000000" d="M41.0,45.0 H42.0 V56.0 H41.0 Z" />
<path fill="#000000" d="M42.0,47.0 H43.0 V58.0 H42.0 Z" />
<path fill="#000000" d="M43.0,49.0 H44.0 V60.0 H43.0 Z" />
</svg>