<?xml version='1.0' encoding='UTF-8'?>
<svg xmlns="http://www.w3.org/2000/svg" version="1.1" width="75" height="93" shape-rendering="crispEdges">
<path fill="#000000" d="M34.0,14.0 H38.0 V88.0 H34.0 Z" />
<path fill="#000000" d="M33.0,15.0 H34.0 V88.0 H33.0 Z" />
<path fill="#000000" d="M38.0,15.0 H39.0 V88.0 H38.0 Z" />
<path fill="#000000" d="M32.0,16.0 H33.0 V88.0 H32.0 Z" />
<path fill="#000000" d="M39.0,16.0 H40.0 V88.0 H39.0 Z" />
<path fill="#000000" d="M31.0,17.0 H32.0 V26.0 H31.0 Z" />
<path fill="#000000" d="M40.0,17.0 H41.0 V26.0 H40.0 Z" />
<path fill="#000000" d="M30.0,18.0 H31.0 V27.0 H30.0 Z" />
<path fill="#000000" d="M41.0,18.0 H42.0 V27.0 H41.0 Z" />
<path fill="#000000" d="M29.0,19.0 H30.0 V28.0 H29.0 Z" />
<path fill="#000000" d="M42.0,19.0 H43.0 V28.0 H42.0 Z" />
<path fill="#000000" d="M28.0,20.0 H29.0 V29.0 H28.0 Z" />
<path fill="#000000" d="M43.0,20.0 H44.0 V29.0 H43.0 Z" />
<path fill="#000000" d="M27.0,21.0 H28.0 V30.0 H27.0 Z" />
<path fill="#000000" d="M44.0,21.0 H45.0 V30.0 H44.0 Z" />
<path fill="#000000" d="M26.0,22.0 H27.0 V31.0 H26.0 Z" />
<path fill="#000000" d="M45.0,22.0 H46.0 V31.0 H45.0 Z" />
<path fill="#000000" d="M25.0,23.0 H26.0 V32.0 H25.0 Z" />
<path fill="#000000" d="M46.0,23.0 H47.0 V32.0 H46.0 Z" />
<path fill="#000000" d="M24.0,24.0 H25.0 V33.0 H24.0 Z" />
<path fill="#000000" d="M47.0,24.0 H48.0 V33.0 H47.0 Z" />
<path fill="#000000" d="M23.0,25.0 H24.0 V34.0 H23.0 Z" />
<path fill="#000000" d="M48.0,25.0 H49.0 V34.0 H48.0 Z" />
<path fill="#000000" d="M22.0,26.0 H23.0 V35.0 H22.0 Z" />
<path fill="#000000" d="M49.0,26.0 H50.0 V35.0 H49.0 Z" />
<path fill="#000000" d="M21.0,27.0 H22.0 V36.0 H21.0 Z" />
<path fill="#000000" d="M50.0,27.0 H51.0 V36.0 H50.0 Z" />
<path fill="#000000" d="M20.0,28.0 H21.0 V37.0 H20.0 Z" />
<path fill="#000000" d="M51.0,28.0 H52.0 V37.0 H51.0 Z" />
<path fill="#000000" d="M19.0,29.0 H20.0 V36.0 H19.0 Z" />
<path fill="#000000" d="M52.0,29.0 H53.0 V36.0 H52.0 Z" />
<path fill="#000000" d="M18.0,30.0 H19.0 V35.0 H18.0 Z" />
<path fill="#000000" d="M53.0,30.0 H54.0 V35.0 H53.0 Z" />
<path fill="#000000" d="M17.0,31.0 H18.0 V34.0 H17.0 Z" />
<path fill="#000000" d="M54.0,31.0 H55.0 V34.0 H54.0 Z" />
<path fill="#000000" d="M16.0,32.0 H17.0 V33.0 H16.0 Z" />
<path fill="#000000" d="M55.0,32.0 H56.0 V33.0 H55.0 Z" />
</svg>