<?xml version='1.0' encoding='UTF-8'?>
<svg xmlns="http://www.w3.org/2000/svg" version="1.1" width="75" height="93" shape-rendering="crispEdges">
<path fill="#000000" d="M21.0,14.0 H30.0 V18.0 H21.0 Z" />
<path fill="#000000" d="M41.0,14.0 H51.0 V16.0 H41.0 Z" />
<path fill="#000000" d="M42.0,16.0 H51.0 V18.0 H42.0 Z" />
<path fill="#000000" d="M22.0,18.0 H30.0 V26.0 H22.0 Z" />
<path fill="#000000" d="M42.0,18.0 H50.0 V25.0 H42.0 Z" />
<path fill="#000000" d="M43.0,25.0 H50.0 V58.0 H43.0 Z" />
<path fill="#000000" d="M22.0,26.0 H29.0 V78.0 H22.0 Z" />
<path fill="#000000" d="M42.0,56.0 H43.0 V87.0 H42.0 Z" />
<path fill="#000000" d="M43.0,58.0 H49.0 V78.0 H43.0 Z" />
<path fill="#000000" d="M29.0,72.0 H31.0 V80.0 H29.0 Z" />
<path fill="#000000" d="M31.0,73.0 H32.0 V81.0 H31.0 Z" />
<path fill="#000000" d="M32.0,74.0 H33.0 V82.0 H32.0 Z" />
<path fill="#000000" d="M33.0,75.0 H35.0 V83.0 H33.0 Z" />
<path fill="#000000" d="M35.0,76.0 H37.0 V84.0 H35.0 Z" />
<path fill="#000000" d="M37.0,77.0 H39.0 V84.0 H37.0 Z" />
<path fill="#000000" d="M27.0,78.0 H29.0 V79.0 H27.0 Z" />
<path fill="#000000" d="M39.0,78.0 H41.0 V86.0 H39.0 Z" />
<path fill="#000000" d="M43.0,78.0 H48.0 V87.0 H43.0 Z" />
<path fill="#000000" d="M41.0,79.0 H42.0 V87.0 H41.0 Z" />
<path fill="#000000" d="M38.0,84.0 H39.0 V85.0 H38.0 Z" />
<path fill="#000000" d="M40.0,86.0 H41.0 V87.0 H40.0 Z" />
</svg>