<?xml version='1.0' encoding='UTF-8'?>
<svg xmlns="http://www.w3.org/2000/svg" version="1.1" width="75" height="93" shape-rendering="crispEdges">
<path fill="#000000" d="M20.0,16.0 H26.0 V22.0 H20.0 Z" />
<path fill="#000000" d="M46.0,16.0 H53.0 V19.0 H46.0 Z" />
<path fill="#000000" d="M26.0,19.0 H27.0 V58.0 H26.0 Z" />
<path fill="#000000" d="M46.0,19.0 H52.0 V26.0 H46.0 Z" />
<path fill="#000000" d="M21.0,22.0 H26.0 V31.0 H21.0 Z" />
<path fill="#000000" d="M45.0,23.0 H46.0 V54.0 H45.0 Z" />
<path fill="#000000" d="M27.0,24.0 H28.0 V61.0 H27.0 Z" />
<path fill="#000000" d="M46.0,26.0 H51.0 V28.0 H46.0 Z" />
<path fill="#000000" d="M44.0,27.0 H45.0 V58.0 H44.0 Z" />
<path fill="#000000" d="M28.0,28.0 H29.0 V66.0 H28.0 Z" />
<path fill="#000000" d="M46.0,28.0 H50.0 V32.0 H46.0 Z" />
<path fill="#000000" d="M22.0,31.0 H26.0 V34.0 H22.0 Z" />
<path fill="#000000" d="M46.0,32.0 H49.0 V37.0 H46.0 Z" />
<path fill="#000000" d="M29.0,33.0 H30.0 V69.0 H29.0 Z" />
<path fill="#000000" d="M23.0,34.0 H26.0 V40.0 H23.0 Z" />
<path fill="#000000" d="M43.0,35.0 H44.0 V65.0 H43.0 Z" />
<path fill="#000000" d="M30.0,36.0 H31.0 V72.0 H30.0 Z" />
<path fill="#000000" d="M46.0,37.0 H48.0 V42.0 H46.0 Z" />
<path fill="#000000" d="M24.0,40.0 H26.0 V46.0 H24.0 Z" />
<path fill="#000000" d="M42.0,40.0 H43.0 V69.0 H42.0 Z" />
<path fill="#000000" d="M31.0,42.0 H32.0 V76.0 H31.0 Z" />
<path fill="#000000" d="M46.0,42.0 H47.0 V48.0 H46.0 Z" />
<path fill="#000000" d="M41.0,43.0 H42.0 V73.0 H41.0 Z" />
<path fill="#000000" d="M25.0,46.0 H26.0 V54.0 H25.0 Z" />
<path fill="#000000" d="M40.0,47.0 H41.0 V77.0 H40.0 Z" />
<path fill="#000000" d="M32.0,52.0 H33.0 V87.0 H32.0 Z" />
<path fill="#000000" d="M33.0,56.0 H34.0 V88.0 H33.0 Z" />
<path fill="#000000" d="M39.0,56.0 H40.0 V83.0 H39.0 Z" />
<path fill="#000000" d="M34.0,60.0 H35.0 V88.0 H34.0 Z" />
<path fill="#000000" d="M38.0,60.0 H39.0 V85.0 H38.0 Z" />
<path fill="#000000" d="M35.0,64.0 H38.0 V87.0 H35.0 Z" />
<path fill="#000000" d="M35.0,87.0 H37.0 V88.0 H35.0 Z" />
</svg>