<?xml version='1.0' encoding='UTF-8'?>
<svg xmlns="http://www.w3.org/2000/svg" version="1.1" width="75" height="93" shape-rendering="crispEdges">
<path fill="#000000" d="M40.0,26.0 H43.0 V34.0 H40.0 Z" />
<path fill="#000000" d="M38.0,27.0 H40.0 V34.0 H38.0 Z" />
<path fill="#000000" d="M43.0,27.0 H44.0 V39.0 H43.0 Z" />
<path fill="#000000" d="M37.0,28.0 H38.0 V35.0 H37.0 Z" />
<path fill="#000000" d="M35.0,29.0 H37.0 V36.0 H35.0 Z" />
<path fill="#000000" d="M44.0,29.0 H45.0 V83.0 H44.0 Z" />
<path fill="#000000" d="M34.0,30.0 H35.0 V37.0 H34.0 Z" />
<path fill="#000000" d="M45.0,30.0 H46.0 V83.0 H45.0 Z" />
<path fill="#000000" d="M33.0,31.0 H34.0 V38.0 H33.0 Z" />
<path fill="#000000" d="M46.0,31.0 H47.0 V83.0 H46.0 Z" />
<path fill="#000000" d="M32.0,32.0 H33.0 V39.0 H32.0 Z" />
<path fill="#000000" d="M30.0,33.0 H32.0 V41.0 H30.0 Z" />
<path fill="#000000" d="M47.0,33.0 H48.0 V83.0 H47.0 Z" />
<path fill="#000000" d="M29.0,34.0 H30.0 V42.0 H29.0 Z" />
<path fill="#000000" d="M41.0,34.0 H43.0 V35.0 H41.0 Z" />
<path fill="#000000" d="M48.0,34.0 H49.0 V83.0 H48.0 Z" />
<path fill="#000000" d="M28.0,35.0 H29.0 V42.0 H28.0 Z" />
<path fill="#000000" d="M42.0,35.0 H43.0 V38.0 H42.0 Z" />
<path fill="#000000" d="M26.0,36.0 H28.0 V41.0 H26.0 Z" />
<path fill="#000000" d="M35.0,36.0 H36.0 V37.0 H35.0 Z" />
<path fill="#000000" d="M49.0,36.0 H50.0 V83.0 H49.0 Z" />
<path fill="#000000" d="M25.0,37.0 H26.0 V40.0 H25.0 Z" />
<path fill="#000000" d="M27.0,41.0 H28.0 V42.0 H27.0 Z" />
<path fill="#000000" d="M30.0,41.0 H31.0 V42.0 H30.0 Z" />
<path fill="#000000" d="M41.0,45.0 H44.0 V51.0 H41.0 Z" />
<path fill="#000000" d="M40.0,46.0 H41.0 V53.0 H40.0 Z" />
<path fill="#000000" d="M38.0,47.0 H40.0 V54.0 H38.0 Z" />
<path fill="#000000" d="M37.0,48.0 H38.0 V56.0 H37.0 Z" />
<path fill="#000000" d="M36.0,49.0 H37.0 V57.0 H36.0 Z" />
<path fill="#000000" d="M34.0,50.0 H36.0 V58.0 H34.0 Z" />
<path fill="#000000" d="M33.0,51.0 H34.0 V59.0 H33.0 Z" />
<path fill="#000000" d="M41.0,51.0 H42.0 V52.0 H41.0 Z" />
<path fill="#000000" d="M32.0,52.0 H33.0 V60.0 H32.0 Z" />
<path fill="#000000" d="M31.0,54.0 H32.0 V61.0 H31.0 Z" />
<path fill="#000000" d="M38.0,54.0 H39.0 V55.0 H38.0 Z" />
<path fill="#000000" d="M30.0,55.0 H31.0 V62.0 H30.0 Z" />
<path fill="#000000" d="M29.0,56.0 H30.0 V73.0 H29.0 Z" />
<path fill="#000000" d="M28.0,57.0 H29.0 V72.0 H28.0 Z" />
<path fill="#000000" d="M27.0,58.0 H28.0 V71.0 H27.0 Z" />
<path fill="#000000" d="M34.0,58.0 H35.0 V59.0 H34.0 Z" />
<path fill="#000000" d="M26.0,59.0 H27.0 V71.0 H26.0 Z" />
<path fill="#000000" d="M25.0,60.0 H26.0 V70.0 H25.0 Z" />
<path fill="#000000" d="M24.0,62.0 H25.0 V68.0 H24.0 Z" />
<path fill="#000000" d="M30.0,66.0 H31.0 V74.0 H30.0 Z" />
<path fill="#000000" d="M31.0,67.0 H33.0 V75.0 H31.0 Z" />
<path fill="#000000" d="M33.0,68.0 H34.0 V77.0 H33.0 Z" />
<path fill="#000000" d="M34.0,69.0 H36.0 V78.0 H34.0 Z" />
<path fill="#000000" d="M36.0,70.0 H38.0 V79.0 H36.0 Z" />
<path fill="#000000" d="M38.0,71.0 H39.0 V79.0 H38.0 Z" />
<path fill="#000000" d="M39.0,72.0 H40.0 V79.0 H39.0 Z" />
<path fill="#000000" d="M43.0,72.0 H44.0 V78.0 H43.0 Z" />
<path fill="#000000" d="M40.0,73.0 H41.0 V79.0 H40.0 Z" />
<path fill="#000000" d="M42.0,73.0 H43.0 V78.0 H42.0 Z" />
<path fill="#000000" d="M41.0,74.0 H42.0 V78.0 H41.0 Z" />
<path fill="#000000" d="M32.0,75.0 H33.0 V76.0 H32.0 Z" />
</svg>